<?xml version="1.0" encoding="utf-8"?>
<!-- Generator: Adobe Illustrator 22.1.0, SVG Export Plug-In . SVG Version: 6.00 Build 0)  -->
<svg version="1.1" id="Layer_1" xmlns="http://www.w3.org/2000/svg" xmlns:xlink="http://www.w3.org/1999/xlink" x="0px" y="0px"
	 viewBox="0 0 700 700" style="enable-background:new 0 0 700 700;" xml:space="preserve">
<style type="text/css">
	.st0{fill:#EE2A24;}
	.st1{fill:#253C97;}
	.st2{fill:#ED2224;}
	.st3{fill:#FFFFFF;}
	.st4{fill:#EE2F24;}
</style>
<g>
	<path class="st0" d="M355.1,653.3C191.2,653.3,57.9,520,57.9,356.1S191.2,58.9,355.1,58.9s297.2,133.3,297.2,297.2
		S519,653.3,355.1,653.3z M355.1,72.3c-156.5,0-283.8,127.3-283.8,283.8s127.3,283.8,283.8,283.8s283.8-127.3,283.8-283.8
		S511.6,72.3,355.1,72.3z"/>
</g>
<g>
	<path class="st1" d="M115.5,402l-3.7-1.1c0.7-0.9,1.1-2.1,1-3.3c-0.2-1.9-1.2-2.6-3.5-3.5l-16.8,11.1l-0.6-4.7l13.4-8.2l-14.9-4.8
		l-0.6-4.7l20.9,7.5c3.1,1.1,5.4,2.7,5.9,6.7C116.9,399,116.2,401.1,115.5,402z"/>
	<path class="st1" d="M111.1,381.7c-0.4-1.5-1.3-2.2-6-2.6l-8.7-0.7L95.9,365l14.3-0.6l-0.1-1.9l7.9-0.3l0.2,3.8l-4.5,0.2l0.5,11.6
		l4.5-0.2l0.2,3.8L111.1,381.7z M105.4,375.3c2.5,0.1,4.2,0.9,5.4,2.1l-0.4-9.2l-11,0.5l0.3,6.3L105.4,375.3z"/>
	<path class="st1" d="M111.3,356.3l9.2,0.3l-0.1,3.8l-24.4-0.9l0.1-3.8l2.4,0.1c-1.7-1.4-2.7-3.4-2.6-5.7c0.2-4.5,3.7-7.5,9.6-7.3
		c5.8,0.2,9.2,3.5,9,8C114.3,353,113.2,355,111.3,356.3z M105.2,346.8c-3.4-0.1-5.9,1.7-6.1,4.6c-0.1,1.8,0.9,3.7,2.2,4.5l7,0.3
		c1.3-0.8,2.5-2.6,2.6-4.3C111.1,348.9,108.7,346.9,105.2,346.8z"/>
	<path class="st1" d="M118,340.7c0.2-0.4,0.4-1,0.5-1.4c0.1-1.2-0.1-2-1.2-2.6l-1.9-1.1l-18.6,5l0.5-4l13.7-3.5l-12.6-6.5l0.5-4
		l19.8,10.7c2.8,1.5,3.6,3.7,3.3,6.4c-0.1,0.5-0.3,1.6-0.5,2.1L118,340.7z"/>
	<path class="st1" d="M116.1,325.2l-8-9.1l-9.3,5.5l0.9-4.6l8-4.7l-6.8-1.4l0.7-3.7l6.8,1.4l-5.6-7.4l0.9-4.6l6.4,8.6l10.9-5.3
		l-0.9,4.6l-8.2,3.8l0.8,1.2l6.1,1.2l-0.7,3.7l-6.1-1.2l-1.2,0.7l6.1,6.6L116.1,325.2z"/>
	<path class="st1" d="M113,296.9c-4.9-1.5-7.9-6.1-6.4-11c1.5-5,6.3-7,11.6-5.4l0.9,0.3l-3.8,12.8c2.6,0.5,5.3-0.8,6.2-3.9
		c0.5-1.6,0.4-3.7-0.5-5.3l2.9-0.9c1.1,2.1,1.3,4.8,0.5,7.5C123,295.9,118.4,298.5,113,296.9z M109.6,286.8c-0.9,3.1,1.1,5.2,3.1,6
		l2.8-9.3C113.5,282.9,110.6,283.5,109.6,286.8z"/>
	<path class="st1" d="M127.1,280.1l-16.4-6.7l1.4-3.5l6.4,2.6l3-7.4l-6.4-2.6l1.4-3.5l6.4,2.6l2.4-5.9c1.4-3.3,4.4-4.1,7-3
		c2.6,1.1,4.2,3.8,2.9,7.1l-3.8,9.4l-6.8-2.8l-3,7.4l6.8,2.8L127.1,280.1z M126.2,263l3.7,1.5l2.2-5.5c0.5-1.2,0-2.2-1-2.7
		c-1.1-0.4-2.2-0.1-2.7,1.2L126.2,263z"/>
	<path class="st1" d="M130.6,249.2c-4.5-2.4-6.5-7.5-4.1-12.1c2.4-4.6,7.5-5.7,12.5-3.1l0.8,0.4l-6.2,11.8c2.5,1,5.4,0.3,6.9-2.6
		c0.8-1.5,1.1-3.6,0.6-5.2l3-0.4c0.7,2.3,0.3,5-1,7.4C140.6,250,135.5,251.8,130.6,249.2z M129.2,238.6c-1.5,2.9,0.1,5.3,1.9,6.5
		l4.5-8.6C133.7,235.5,130.8,235.5,129.2,238.6z"/>
	<path class="st1" d="M150.9,229.6l-4.5-16l-15,1.2l3-4.2l13.5-0.8l-8.6-6.1l2.4-3.4l8.6,6.1l-3.7-13l3-4.2l3.8,14.6l16.6-1l-3,4.2
		l-13.1,0.6l0.5,1.8l7.2,5.1l-2.4,3.4l-7.2-5.1l-1.9,0.1l3.7,12.5L150.9,229.6z"/>
	<path class="st1" d="M169.2,202.3l-1.6-3.5c1.1-0.1,2.3-0.5,3.1-1.4c1.3-1.4,1.2-2.6,0.3-5l-19.4-5.2l3.2-3.6l15,4.6l-6.3-14.4
		l3.2-3.6l8.2,20.7c1.2,3,1.6,5.8-1.2,8.9C172.3,201.4,170.3,202.3,169.2,202.3z"/>
	<path class="st1" d="M186.3,185.3l-16.8-17.8l7.6-7.2c3.6-3.4,8.1-2.8,10.9,0.2c2.8,3,3.2,7.5-0.4,10.9l-4.6,4.3l6.3,6.6
		L186.3,185.3z M185,163.5c-1.6-1.7-3.9-1.6-5.6,0l-4.2,3.9l5.3,5.7l4.2-3.9C186.4,167.5,186.6,165.2,185,163.5z"/>
	<path class="st1" d="M201.6,171l-15-19.3l3.3-2.6l10.4,13.4l-0.8-20.9l3.4-2.6l15,19.3l-3.3,2.6l-10.7-13.7l0.9,21.4L201.6,171z"/>
	<path class="st1" d="M226.6,152.2l1.5-12.1l-10.3-3.3l4-2.3l8.8,2.9l-3.5-6l3.2-1.9l3.5,6l1.9-9.1l4-2.3l-2.2,10.6l11.2,4.7
		l-4.1,2.4l-8.3-3.6l-0.3,1.4l3.2,5.4l-3.3,1.9l-3.2-5.4l-1.3-0.4l-0.9,9L226.6,152.2z"/>
	<path class="st1" d="M250.6,138.6l-7.5-16l3.4-1.6l5,10.8l2.2-14.2l3.4-1.6l7.5,16l-3.4,1.6l-5.2-11.1l-2.2,14.5L250.6,138.6z"/>
	<path class="st1" d="M268.4,130.5l-6.2-16.6l9.7-3.6c3.1-1.1,5.5,0.1,6.4,2.5c0.7,2,0,3.8-1.3,4.8c1.9-0.2,3.8,1,4.6,2.9
		c1,2.6-0.1,5.1-3.2,6.3L268.4,130.5z M275,114.7c-0.4-1-1.3-1.5-2.5-1l-5.6,2.1l1.3,3.4l5.6-2.1C274.9,116.6,275.3,115.7,275,114.7
		z M277.8,121.3c-0.4-1-1.4-1.6-2.7-1.1l-5.7,2.1l1.4,3.7l5.7-2.1C277.7,123.5,278.2,122.5,277.8,121.3z"/>
	<path class="st1" d="M283.5,115.5c-1.4-4.9,0.8-9.9,6-11.3c5.3-1.5,9.7,1.6,11.1,6.5c1.4,4.9-0.7,9.9-6.1,11.4
		C289.3,123.6,284.9,120.5,283.5,115.5z M296.9,111.8c-0.8-3-3.3-5.2-6.4-4.3c-3.1,0.9-4,4-3.2,7c0.9,3,3.3,5.2,6.4,4.3
		C296.8,117.9,297.8,114.8,296.9,111.8z"/>
	<path class="st1" d="M309.2,118l-2.9-14l-4.8,1l-0.7-3.3l13.4-2.8l0.7,3.3l-4.9,1l2.9,14L309.2,118z"/>
	<path class="st1" d="M328.9,118.1c0.4,0.1,1,0.2,1.5,0.1c1.2-0.1,1.9-0.6,2.3-1.8l0.6-2.1l-8.9-17.1l4-0.4l6.4,12.7l3.7-13.7l4-0.4
		l-6.2,21.6c-0.9,3.1-2.8,4.3-5.5,4.6c-0.5,0.1-1.6,0.1-2.1,0L328.9,118.1z"/>
	<path class="st1" d="M344.2,110.6l1.7-2.5c1.7,1.4,4,2.1,6.3,2c2.6-0.1,4.2-1.1,4.2-2.5c0-1.7-2-2.3-4.6-2.2l-3.7,0.1l-0.1-3.1
		l3.7-0.1c2.6-0.1,4.2-0.9,4.2-2.4c0-1.3-1.8-2.1-4.2-2.1c-2.3,0.1-4.1,0.8-5.5,2.3l-1.9-2.3c1.6-1.8,4-3,7.2-3.1
		c5.1-0.2,8.3,1.6,8.4,4.6c0.1,2.4-2.3,4-4.5,4.4c2.1,0.1,5,1.3,5.1,4.1c0.1,3-2.9,5.3-8,5.5C348.7,113.3,345.9,112.3,344.2,110.6z"
		/>
	<path class="st1" d="M376.1,110.8l-0.8,9.2l-3.7-0.3l2.1-24.3l3.7,0.3l-0.2,2.4c1.4-1.6,3.5-2.6,5.8-2.4c4.5,0.4,7.3,4.1,6.8,9.9
		c-0.5,5.8-4,9-8.4,8.6C379.2,113.9,377.3,112.8,376.1,110.8z M385.9,105.2c0.3-3.4-1.4-6-4.3-6.3c-1.8-0.2-3.7,0.7-4.6,2l-0.6,7
		c0.7,1.3,2.5,2.6,4.2,2.8C383.5,110.9,385.6,108.6,385.9,105.2z"/>
	<path class="st1" d="M402.3,116.6l0.3-1.9c-1.5,1.3-3.6,1.8-5.9,1.4c-2.8-0.5-5.6-2.9-4.9-6.8c0.7-4,4.1-5.1,6.9-4.7
		c2.3,0.4,4.1,1.5,5.1,3.2l0.4-2.6c0.3-2-1.1-3.5-3.4-3.9c-1.9-0.3-3.7,0.1-5.4,1.3l-1.1-2.9c2.3-1.6,4.9-2.1,7.7-1.6
		c3.8,0.6,6.8,2.8,6,7.5l-2,11.6L402.3,116.6z M403,112.6l0.5-2.6c-0.6-1.3-2.1-2.2-3.8-2.5c-2.1-0.4-3.8,0.6-4.2,2.5
		c-0.3,1.9,1,3.4,3.1,3.7C400.3,114,401.9,113.6,403,112.6z"/>
	<path class="st1" d="M417.5,101.7l-1.2,4.6c-0.7,2.7,0.4,3.8,3.1,4.5c1.6,0.4,2.9,0.5,3.8,0.3l1.9-7.5l3.6,0.9l-4.3,17.2l-3.6-0.9
		l1.7-6.7c-1.3,0.3-3,0.2-5.1-0.3c-4.7-1.2-6-3.6-5.1-7.1l1.5-6L417.5,101.7z"/>
	<path class="st1" d="M427.1,126.1c0.3,0.3,0.9,0.6,1.3,0.7c1.1,0.4,2,0.3,2.8-0.7l1.5-1.6l-1-19.2l3.8,1.3l0.5,14.2l9-10.9l3.8,1.3
		l-14.6,17.1c-2.1,2.5-4.4,2.7-6.9,1.9c-0.5-0.2-1.5-0.6-1.9-0.9L427.1,126.1z"/>
	<path class="st1" d="M444.7,128.5l7-16.3l3.5,1.5l-2.7,6.4l7.3,3.1l2.7-6.4l3.5,1.5l-7,16.3l-3.5-1.5l2.9-6.8l-7.3-3.1l-2.9,6.8
		L444.7,128.5z"/>
	<path class="st1" d="M472,141.3l0.9-1.7c-1.8,0.7-4,0.5-6-0.5c-2.5-1.3-4.4-4.5-2.6-8c1.9-3.6,5.5-3.6,8-2.3
		c2.1,1.1,3.5,2.7,3.9,4.6l1.2-2.3c1-1.8,0.1-3.7-2.1-4.8c-1.7-0.9-3.5-1-5.6-0.4l-0.1-3.1c2.7-0.8,5.3-0.4,7.8,0.8
		c3.4,1.8,5.6,4.8,3.4,9l-5.5,10.4L472,141.3z M473.8,137.7l1.2-2.4c-0.2-1.5-1.3-2.8-2.8-3.5c-1.9-1-3.8-0.6-4.7,1.1
		c-0.9,1.7-0.1,3.5,1.8,4.5C470.8,138.2,472.5,138.4,473.8,137.7z"/>
	<path class="st1" d="M483.4,145l-4.9,7.8l-3.2-2l13.1-20.6l3.2,2l-1.3,2c2-0.8,4.3-0.7,6.2,0.6c3.8,2.4,4.6,7,1.5,11.9
		c-3.1,4.9-7.7,6.2-11.5,3.8C484.7,149.3,483.6,147.4,483.4,145z M494.7,144.6c1.8-2.9,1.5-6-1-7.6c-1.5-0.9-3.6-1-5-0.4l-3.7,5.9
		c0,1.5,1,3.5,2.5,4.4C489.9,148.6,492.9,147.5,494.7,144.6z"/>
	<path class="st1" d="M500.1,148.2c3.2-4.3,8.5-5.2,12.7-2.1c2.7,2,3.5,4.4,3.4,6.5l-3.4,0.4c0.1-1.7-0.6-3-1.9-4.1
		c-2.5-1.9-5.6-1.2-7.7,1.6c-2.1,2.8-1.9,6,0.7,7.9c1.3,1,2.8,1.2,4.4,0.7l0.6,3.4c-2,0.6-4.5,0.6-7.2-1.5
		C497.5,157.9,496.9,152.5,500.1,148.2z"/>
	<path class="st1" d="M517.8,173.8l0.8-9l-3.5,0.3l-3.1,3.6l-2.8-2.5l11.6-13.3l2.8,2.5l-5.6,6.4l11.4-1.4l3.5,3.1l-10.7,1.3
		l-0.8,12.1L517.8,173.8z"/>
	<path class="st1" d="M520.2,180.7c0.1,0.4,0.5,0.9,0.8,1.2c0.8,0.8,1.6,1.2,2.8,0.7l2-0.8l7.8-17.6l2.8,2.9l-5.9,12.9l13-5.7
		l2.8,2.9l-20.8,8.7c-3,1.3-5.1,0.5-7-1.4c-0.4-0.4-1-1.2-1.3-1.7L520.2,180.7z"/>
	<path class="st1" d="M540.5,197.3l14-10.9l2.3,3l-9.4,7.3l14.3-1.1l2.3,3l-14,10.9l-2.3-3l9.7-7.5l-14.6,1.2L540.5,197.3z"/>
	<path class="st1" d="M552.3,212.8l14.8-9.7l2.1,3.1l-5.8,3.8l4.4,6.7l5.8-3.8l2.1,3.1l-14.8,9.7l-2.1-3.1l6.2-4l-4.4-6.7l-6.2,4
		L552.3,212.8z"/>
	<path class="st1" d="M564.4,232.1l12.5-7l-2.4-4.3l2.9-1.6l6.7,12l-2.9,1.6l-2.4-4.3l-12.5,7L564.4,232.1z"/>
	<path class="st1" d="M577.4,237.1c4.6-2.2,9.9-0.6,12.1,4c2.2,4.7-0.1,9.4-5.1,11.8l-0.8,0.4l-5.7-12.1c-2.3,1.4-3.5,4.1-2.1,7.1
		c0.7,1.5,2.2,3,3.8,3.6l-1.6,2.6c-2.3-0.8-4.1-2.8-5.3-5.3C570.6,244.6,572.3,239.5,577.4,237.1z M586.7,242.5
		c-1.4-2.9-4.3-3.2-6.3-2.4l4.1,8.8C586.4,247.9,588.1,245.6,586.7,242.5z"/>
	<path class="st1" d="M579.7,256.6c0.5,1.4,2.4,1.5,7,0.4l8.4-2.1l4.7,12.5l-16.6,6.2l-1.3-3.5l13.4-5l-2.2-5.9l-5.5,1.4
		c-6.2,1.6-9.5,0.6-10.8-3L579.7,256.6z"/>
	<path class="st1" d="M584.6,277.7l17-4.9l1,3.6l-11.4,3.3l13.6,4.4l1,3.6l-17,4.9l-1-3.6l11.8-3.4l-14-4.4L584.6,277.7z"/>
	<path class="st1" d="M606.6,306.5l-1.9-9.2l-14,3l-0.8-3.7l17.3-3.7l2.7,12.8L606.6,306.5z"/>
	<path class="st1" d="M601.6,309.5c5.1-0.7,9.7,2.3,10.4,7.4c0.7,5.1-2.8,9-8.4,9.8l-0.9,0.1l-1.8-13.2c-2.6,0.7-4.5,2.9-4.1,6.1
		c0.2,1.7,1.2,3.6,2.6,4.6l-2.3,2.1c-1.9-1.5-3.1-3.9-3.5-6.6C592.9,314.6,596,310.2,601.6,309.5z M608.8,317.3
		c-0.4-3.2-3.1-4.3-5.3-4.2l1.3,9.7C606.9,322.4,609.3,320.7,608.8,317.3z"/>
	<path class="st1" d="M595.4,330.8l17.7-1.1l0.2,3.8l-6.9,0.4l0.5,7.9l6.9-0.4l0.2,3.8l-17.7,1.1l-0.2-3.8l7.3-0.4l-0.5-7.9
		l-7.4,0.4L595.4,330.8z"/>
	<path class="st1" d="M596.2,364l0.3-13.6l17.7,0.3l-0.1,3.8l-14.3-0.3l-0.2,8l14.3,0.3l-0.1,3.8l-14.3-0.3l0,1.9l-7.9-0.2l0.1-3.8
		L596.2,364z"/>
	<path class="st1" d="M595.9,370.1l17.6,1.7l-0.4,3.7l-11.9-1.2l11.1,9.1l-0.4,3.7l-17.6-1.7l0.4-3.7l12.2,1.2l-11.4-9.3
		L595.9,370.1z"/>
	<path class="st1" d="M588.8,382.7l2.7,1.5c-0.7,0.5-1.2,1.2-1.3,2.2c-0.2,1.5,0.5,2.7,2.6,3l18.5,2.9l-0.6,3.7l-18.5-2.9
		c-3.7-0.6-5.8-2.9-5.2-6.6C587.2,384.6,587.7,383.7,588.8,382.7z M615.7,392.6c1.3,0.2,2.2,1.4,2,2.7c-0.2,1.3-1.4,2.1-2.7,1.9
		s-2.2-1.4-2-2.7C613.2,393.3,614.4,392.4,615.7,392.6z"/>
	<path class="st1" d="M589,396.7c-0.3,0.3-0.5,0.9-0.6,1.3c-0.2,1.2,0,2,1,2.7l1.8,1.3l19-3.3l-0.8,3.9l-14,2.2l11.9,7.7l-0.8,4
		l-18.7-12.5c-2.7-1.8-3.2-4-2.7-6.6c0.1-0.5,0.4-1.5,0.7-2L589,396.7z"/>
</g>
<g>
	<path class="st1" d="M308.7,588.3l-1,3.6l-11.7-3.4l-1.5,5.1l6.1,1.8c4.8,1.4,6.5,5.6,5.4,9.5c-1.1,4-4.8,6.6-9.6,5.2l-10.1-2.9
		l6.8-23.5L308.7,588.3z M293.5,597.3l-2.2,7.5l5.5,1.6c2.3,0.7,4.4-0.3,5-2.6c0.7-2.3-0.6-4.2-2.8-4.9L293.5,597.3z"/>
	<path class="st1" d="M308.9,604.3c0.9-5,5.2-8.5,10.3-7.6c5.1,0.9,7.7,5.5,6.7,11l-0.2,0.9l-13.1-2.4c-0.2,2.7,1.4,5.2,4.6,5.8
		c1.7,0.3,3.8,0,5.2-1l1.2,2.8c-2,1.4-4.6,1.8-7.4,1.3C311,614.2,307.9,609.9,308.9,604.3z M318.6,599.9c-3.2-0.6-5.1,1.7-5.6,3.7
		l9.6,1.7C322.9,603.3,322,600.5,318.6,599.9z"/>
	<path class="st1" d="M328.8,607.8c0.4-5,4.2-8.9,9.6-8.5c5.5,0.5,8.5,5,8.1,10c-0.4,5.1-4.1,9-9.7,8.5
		C331.4,617.4,328.4,612.9,328.8,607.8z M342.7,609c0.3-3.1-1.3-6-4.5-6.3c-3.2-0.3-5.2,2.3-5.5,5.4c-0.3,3.1,1.3,6,4.5,6.3
		C340.4,614.7,342.4,612.1,342.7,609z"/>
	<path class="st1" d="M363.8,604l-9.4,0l-0.1,14.3l-3.8,0l0.1-17.7l13.1,0.1L363.8,604z"/>
	<path class="st1" d="M371.4,615.4l0.7,9.2l-3.8,0.3l-1.9-24.4l3.8-0.3l0.2,2.4c1.1-1.9,3.1-3.1,5.3-3.3c4.5-0.3,7.9,2.8,8.4,8.7
		c0.5,5.8-2.5,9.5-6.9,9.9C374.9,618.1,372.9,617.2,371.4,615.4z M380.1,608.3c-0.3-3.4-2.4-5.7-5.3-5.5c-1.8,0.1-3.5,1.3-4.2,2.7
		l0.5,7c0.9,1.2,2.9,2.2,4.6,2C378.7,614.4,380.4,611.8,380.1,608.3z"/>
	<path class="st1" d="M399.9,614.4l-0.3-1.9c-1,1.7-2.9,2.9-5.1,3.3c-2.8,0.5-6.3-0.9-6.9-4.8c-0.7-4,2.2-6.2,5-6.7
		c2.3-0.4,4.4,0,5.9,1.3L398,603c-0.3-2-2.2-3-4.5-2.6c-1.9,0.3-3.4,1.3-4.7,3.1l-2-2.4c1.7-2.3,4-3.6,6.7-4
		c3.8-0.6,7.4,0.4,8.2,5.1l2,11.6L399.9,614.4z M399.2,610.4l-0.5-2.6c-1.1-1-2.7-1.4-4.4-1.1c-2.1,0.4-3.4,1.8-3.1,3.8
		c0.3,1.9,2.1,2.8,4.2,2.5C397.1,612.7,398.6,611.8,399.2,610.4z"/>
	<path class="st1" d="M406.9,609.9c1.3-0.7,1.9-1.8,1.2-6.4l-1.2-8.6l12.9-3.4l3.7,13.8l1.8-0.5l2,7.6l-3.6,1l-1.2-4.4l-11.2,3
		l1.2,4.4l-3.6,1L406.9,609.9z M411.9,602.9c0.4,2.4,0,4.3-0.9,5.7l8.9-2.4l-2.8-10.6l-6.1,1.6L411.9,602.9z"/>
</g>
<g>
	<g>
		<g>
			<g>
				<path class="st2" d="M306,399.3l-0.5-0.9c-0.5-0.9-0.9-1.7-1.4-2.5l-1.2-2.1l4.8,3L306,399.3z"/>
			</g>
		</g>
	</g>
	<g>
		<g>
			<g>
				<path class="st3" d="M408.5,451.6c1.1,18.2,8.6,31.3,11,41.9c3.5,6.3,9.6,17.2,13.2,21.5c4.6,5.5,11.1,10.6,12.6,11.8
					c1.7,0.2,8.5,0.6,17.2-3c6.1-2.5,15.1-8,23.7-19.7c-2.4-0.9-6.5-2.8-11-6.8c-6.5-5.7-15.2-17-20-38.4
					c-4.8-21.5,1.9-38.8,8.2-49.5c5-8.5,10.7-14.2,13.4-16.7l-32.8-20.7c-2.5,1.8-9.6,6.9-14.7,13.3c-5.4,6.8-10.3,16.3-11.5,18.7
					c0,0-6.6,12.1-9.1,17.2S408.5,451.6,408.5,451.6z"/>
				<path class="st2" d="M447.8,529.2c-1.1,0-2-0.1-2.7-0.1l-0.7-0.1l-0.5-0.4c-1.9-1.4-8.3-6.6-13-12.2
					c-3.5-4.2-9.3-14.2-13.5-21.9l-0.2-0.6c-0.8-3.4-2.2-7.2-3.6-11.2c-3-8.3-6.7-18.5-7.5-31c-0.4-4.4-2-26.2,0.6-31.6
					c2.4-5.1,8.9-16.8,9.1-17.3c1.3-2.7,6.2-12.1,11.8-19c5.2-6.5,12.3-11.8,15.2-13.7l1.3-0.9l36.7,23.2l-2.2,2.1
					c-2.8,2.6-8.1,8.1-12.9,16.2c-6.2,10.3-12.5,27-8,47.8c4.6,20.8,13,31.7,19.2,37.2c4.1,3.6,7.8,5.4,10.2,6.3l3,1.1l-1.9,2.5
					c-9,12.1-18.4,17.8-24.7,20.4C456.9,528.6,451.3,529.2,447.8,529.2z M446.3,524.4c2.4,0.1,8.2,0.1,15.4-2.9
					c5.4-2.2,13.2-6.9,20.9-16.5c-2.5-1.2-5.6-3.1-8.8-6c-6.8-6-15.8-17.7-20.7-39.7c-4.9-22.3,1.9-40.1,8.5-51.2
					c4.1-6.8,8.5-11.9,11.6-15.1l-28.9-18.3c-2.9,2.1-8.7,6.6-12.9,11.9c-5.4,6.7-10.3,16.4-11.3,18.3c-0.1,0.2-6.7,12.2-9.1,17.2
					c-1.5,3.1-1,19-0.1,29.2l0,0c0.7,11.8,4.2,21.3,7.2,29.7c1.5,4.1,2.9,7.9,3.7,11.5c3.4,6.2,9.4,16.8,12.8,20.8
					C438.5,518.2,444,522.7,446.3,524.4z"/>
			</g>
		</g>
	</g>
	<g>
		<g>
			<g>
				<path class="st2" d="M436.4,530.4C436.4,530.5,436.4,530.5,436.4,530.4C436.4,530.4,436.4,530.4,436.4,530.4L436.4,530.4z
					 M437.7,528.9L437.7,528.9C437.7,528.9,437.7,528.9,437.7,528.9C437.7,528.9,437.7,528.9,437.7,528.9z"/>
			</g>
		</g>
	</g>
	<g>
		<g>
			<g>
				<path class="st3" d="M447.1,526.5c5.1,3.8,17.5,10.4,41.5,10c36.5-0.5,60.3-36.9,66.7-59.8c7.2-25.7-2.7-68.2-35.6-99.7
					c-4.7-4.5-10.4-9.2-16.9-13.9c-4.4,1.7-9,3.2-13.7,4.6c-12.8,3.7-26.7,6.3-42.4,8c14.5,8.1,31.4,17.9,37.3,24.2
					c7.2,7.7,16,18.5,20.2,33.1c4.7,16.5,2.3,34.7-7.1,54.2c-11.1,22.9-25.3,32.3-35.2,36.2C455.9,525.7,450.8,526.4,447.1,526.5z"
					/>
				<path class="st2" d="M486.8,538.9c-23.3,0-36.9-5.9-42.3-9.9l-5.5-4.5l8.1-0.4c3.1-0.1,8.1-0.7,13.9-2.9
					c9.6-3.7,23.2-12.8,34-35c9.1-18.9,11.5-36.6,7-52.5c-4-14.2-12.6-24.6-19.6-32.1c-5.9-6.3-23.8-16.6-36.8-23.8l-6.5-3.6
					l7.4-0.8c15.5-1.6,29.3-4.2,42-7.9c4.7-1.3,9.2-2.9,13.6-4.5l1.2-0.4l1,0.7c6.6,4.7,12.4,9.5,17.2,14.1
					c33.6,32.2,43.7,75.7,36.2,102.1c-6.6,23.5-31.2,60.9-69,61.5C488,538.9,487.4,538.9,486.8,538.9z M452.8,528
					c6.6,3.2,18.9,6.4,35.8,6.1c35.2-0.5,58.3-35.9,64.5-58.1c7.1-25-2.7-66.5-35-97.4c-4.4-4.2-9.7-8.6-15.7-12.9
					c-4.1,1.5-8.4,2.9-12.7,4.2c-11,3.2-22.6,5.5-35.5,7.2c12.8,7.2,26.2,15.4,31.6,21.1c7.4,7.9,16.4,18.9,20.7,34.1
					c4.8,17.1,2.4,35.9-7.3,55.9c-11.4,23.6-26.2,33.3-36.5,37.4C459.9,526.6,455.6,527.4,452.8,528z"/>
			</g>
		</g>
	</g>
	<g>
		<g>
			<g>
				<path class="st3" d="M330.6,391.7c18.6-0.1,37.5-0.1,53.9-0.6c2.8,2.5,5.5,5,8,7.6c17.9,18.6,25,41.9,27.8,58.2
					c3.3,19.2,2.3,39.2-2.7,52.3c-10.5,27.7-29.9,41.7-57.9,41.7c-0.1,0-0.3,0-0.4,0c-26.7-0.1-41.8-14-47.7-20.9
					c4.4,1.8,11.7,3.7,20.3,2c11.7-2.4,22-11,30.7-25.4c10.8-17.9,14-35.3,9.4-51.8c-3.8-13.5-11.8-24-19.8-33.4
					c-6-6.9-23.3-17.6-43.7-29.6C315.8,391.8,323.2,391.8,330.6,391.7z"/>
			</g>
			<g>
				<path class="st2" d="M359.7,551.5l-0.4,0c-27.3-0.1-42.8-14.8-48.2-21.1l-1.6-1.9l2.3,1c4.5,1.8,11.6,3.7,19.9,1.9
					c11.5-2.4,21.7-10.8,30.3-25.1c10.8-17.8,13.9-35,9.4-51.4c-3.7-13.4-11.7-23.8-19.7-33.1c-6.1-7-24.5-18.3-43.5-29.5l-1.9-1.1
					l2.2,0c7.3-0.1,14.7-0.1,22.1-0.1l0,0c18.4-0.1,37.4-0.1,53.9-0.6l0.3,0l0.2,0.2c2.9,2.6,5.6,5.2,8,7.6
					c18,18.7,25.1,42.1,27.9,58.5c3.3,19.3,2.3,39.4-2.7,52.6C407.6,537.3,387.9,551.5,359.7,551.5z M313.7,531.4
					c6.4,6.8,21.2,18.8,45.6,18.9l0.4,0c27.7,0,46.9-13.9,57.3-41.3c4.9-13,5.9-32.9,2.7-52c-2.8-16.2-9.9-39.5-27.6-57.9
					c-2.3-2.4-4.9-4.9-7.7-7.4c-16.4,0.5-35.3,0.6-53.6,0.6l0,0c-6.6,0-13.3,0-19.9,0.1c18.4,10.8,36,21.7,42,28.6
					c8.1,9.4,16.2,20,20,33.6c4.6,16.6,1.4,34.2-9.5,52.3c-8.8,14.6-19.3,23.2-31.1,25.7C324.7,534.1,318.3,533,313.7,531.4z"/>
			</g>
		</g>
	</g>
	<g>
		<g>
			<g>
				<g>
					<path class="st4" d="M296.6,509.9c-0.6-1.3-1.1-2.6-1.5-3.9c-4.6-13.8-13-39.5,0-75.3c4.6-12.8,10.3-23,15.7-30.8
						c0.5-0.7,1-1.4,1.5-2.1c0.3-0.4,0.5-0.7,0.8-1.1c0.7,0.4,1.3,0.8,2,1.2c-5.9,8-12.5,19.2-17.7,33.6c-12.8,35.2-4.5,60.4,0,74
						c2.5,7.6,7.5,15,11.8,20.5c-0.4-0.1-0.9-0.1-1.2,0.2c-0.4,0.3-0.5,0.9-0.2,1.4c0.1,0.1,0.6,1,1.6,2.3
						c-3.7-4.4-8.3-10.5-11.6-17.3C297.3,511.6,296.9,510.7,296.6,509.9z"/>
				</g>
				<g>
					<path class="st2" d="M308.9,530.1c-3.4-4.1-8.2-10.4-11.7-17.4c-0.4-0.8-0.8-1.7-1.2-2.5h0c-0.6-1.4-1.1-2.7-1.5-4
						c-4.6-13.9-13.1-39.7,0-75.7c4.1-11.2,9.4-21.6,15.7-30.9c0.5-0.7,1-1.4,1.5-2.1l1.1-1.6l3,1.8l-0.4,0.5
						c-7.2,9.9-13.2,21.2-17.6,33.5c-12.7,35-4.4,60.1,0,73.6c2.6,7.7,7.8,15.3,11.7,20.3l1.3,1.6l-2-0.7c-0.2-0.1-0.4,0-0.6,0.1
						c-0.2,0.2-0.2,0.4-0.1,0.6c0.1,0.2,0.6,1,1.6,2.3L308.9,530.1z M297.1,509.7c0.4,0.8,0.7,1.7,1.1,2.5
						c2.6,5.2,5.9,10.1,8.8,13.9c0.1-0.2,0.2-0.3,0.4-0.5c0.1-0.1,0.3-0.2,0.4-0.3c-3.9-5.1-8.8-12.3-11.3-19.8
						c-4.5-13.6-12.9-39,0-74.3c4.4-12.2,10.3-23.3,17.4-33.2l-0.9-0.5l-0.5,0.6c-0.5,0.7-1,1.4-1.5,2.1
						c-6.3,9.3-11.6,19.6-15.6,30.7c-13,35.7-4.5,61.2,0,75C296.1,507,296.6,508.3,297.1,509.7L297.1,509.7z"/>
				</g>
			</g>
			<g>
				<g>
					<path class="st4" d="M297.3,512.6c-0.4-0.8-0.8-1.7-1.2-2.5l0,0c-0.6-1.4-1.1-2.7-1.5-4c-4.6-13.8-13.1-39.6,0-75.7
						c4.1-11.2,9.4-21.6,15.7-30.9c0.5-0.7,1-1.4,1.5-2.1l1.1-1.5l2.8,1.7l-0.3,0.4c-7.2,9.9-13.2,21.2-17.6,33.5
						c-12.7,35-4.4,60.2,0,73.7c2.6,7.8,7.8,15.4,11.8,20.4l1.1,1.4l-1.7-0.6c-0.2-0.1-0.5,0-0.7,0.1c-0.2,0.2-0.3,0.5-0.1,0.8
						c0,0,0.5,0.9,1.6,2.3l-0.8,0.6C305.5,526,300.7,519.6,297.3,512.6z M296.8,505.4c-4.5-13.6-12.9-38.9,0-74.3
						c4.4-12.2,10.3-23.4,17.5-33.3l-1.1-0.6l-0.5,0.7c-0.5,0.7-1,1.4-1.5,2.1c-6.3,9.3-11.6,19.6-15.6,30.7c-13,35.7-4.5,61.3,0,75
						c0.4,1.3,0.9,2.5,1.5,3.9v0c0.4,0.8,0.7,1.7,1.1,2.5c2.6,5.3,6,10.2,9,14c0.1-0.2,0.2-0.4,0.4-0.6c0.2-0.1,0.3-0.2,0.5-0.3
						C304.2,520.3,299.3,512.9,296.8,505.4z"/>
				</g>
				<g>
					<path class="st2" d="M308.8,530.8l-0.4-0.4c-3.4-4.1-8.3-10.5-11.7-17.5l0,0c-0.4-0.8-0.8-1.7-1.2-2.6c-0.6-1.4-1.1-2.7-1.5-4
						c-4.6-13.9-13.2-39.8,0-76c4.1-11.2,9.4-21.7,15.8-31.1c0.5-0.7,1-1.4,1.5-2.1l1.4-2l3.9,2.3l-0.7,0.9
						c-7.2,9.9-13.1,21.1-17.6,33.3c-12.7,34.8-4.4,59.8,0,73.3c2.5,7.7,7.7,15.2,11.7,20.2l2.4,3l-3.7-1.3c0,0,0.5,0.9,1.5,2.3
						l0.4,0.5L308.8,530.8z M307.4,527.2c0.1,0.1,0.2,0.2,0.3,0.4c0-0.1-0.1-0.1-0.1-0.1c-0.1-0.1-0.1-0.2-0.1-0.4L307.4,527.2z
						 M313.3,398l-0.2,0.2c-0.5,0.7-1,1.4-1.5,2.1c-6.3,9.2-11.5,19.5-15.6,30.6c-12.9,35.5-4.5,61,0,74.7c0.4,1.2,0.9,2.5,1.5,3.9
						c0.4,0.8,0.7,1.6,1.1,2.5c2.1,4.3,4.9,8.7,8.4,13.3c0,0,0,0,0,0c0,0,0,0,0,0c-3.8-4.9-8.6-12.1-11-19.5l0,0
						c-4.5-13.7-12.9-39.1,0-74.6C300.6,418.9,306.4,407.8,313.3,398L313.3,398z"/>
				</g>
			</g>
		</g>
		<g>
			<g>
				<g>
					<g>
						<path class="st3" d="M349.4,421.2c-10.4,19.5-14.4,35.1-12.2,47.5c5,28,12.3,40.8,17.1,46.4c-6.7,8.1-14.1,13-22.2,14.7
							c-12.7,2.7-22.7-3.8-22.8-3.9c-0.1-0.1-0.2-0.1-0.3-0.1c-4.3-5.5-9.3-12.9-11.8-20.5c-4.5-13.6-12.8-38.8,0-74
							c5.3-14.4,11.9-25.6,17.7-33.6C330.2,406.9,343.4,415.3,349.4,421.2z"/>
					</g>
					<g>
						<path class="st2" d="M325.9,531.1c-9.8,0-16.8-4.6-16.8-4.7l-0.2-0.1l-0.2-0.2c-4-5.1-9.3-12.8-11.9-20.7
							c-4.5-13.6-12.9-39,0-74.3c4.5-12.4,10.5-23.7,17.8-33.7l0.3-0.5l0.5,0.3c18.7,11.2,29.4,18.5,34.6,23.5l0.3,0.3l-0.2,0.4
							c-10.3,19.4-14.3,34.8-12.1,47.1c4.9,27.4,11.9,40.2,16.9,46.2l0.3,0.4l-0.3,0.4c-6.8,8.2-14.3,13.2-22.5,14.9
							C330,530.9,327.9,531.1,325.9,531.1z M309.5,525.3c0.1,0,0.1,0.1,0.2,0.1c0.1,0.1,9.9,6.4,22.3,3.8c7.8-1.6,15-6.4,21.5-14.1
							c-5.1-6.2-12-19.2-16.9-46.3c-2.2-12.5,1.7-28.1,12-47.5c-6.6-6.3-21.3-15.4-33.5-22.8c-7.1,9.8-12.9,20.9-17.3,33
							c-12.7,35-4.4,60.1,0,73.6C300.4,512.8,305.6,520.3,309.5,525.3z"/>
					</g>
				</g>
			</g>
			<g>
				<g>
					<g>
						<path class="st4" d="M349.4,421.2c0.6,0.6,1.1,1.1,1.6,1.6c0,0,0.1,0.1,0.1,0.2c-9.7,18.6-13.6,33.8-11.5,45.3
							c4.8,27,11.8,39.4,16.2,45c-0.5,0.6-1,1.2-1.5,1.8c-4.8-5.7-12.1-18.5-17.1-46.4C335.1,456.3,339,440.6,349.4,421.2z"/>
					</g>
					<g>
						<path class="st2" d="M354.3,516.1l-0.5-0.6c-5.1-6-12.2-19.1-17.2-46.7c-2.3-12.6,1.7-28.3,12.2-47.9l0.4-0.7l0.6,0.6
							c0.6,0.6,1.1,1.1,1.6,1.7l0.3,0.3l-0.1,0.5c-9.7,18.4-13.5,33.6-11.5,45c4.7,26.3,11.4,38.8,16.1,44.7l0.3,0.4l-0.3,0.4
							c-0.5,0.6-1,1.3-1.5,1.9L354.3,516.1z M349.6,422.2c-10,19-13.9,34.2-11.7,46.4c4.7,26.5,11.5,39.4,16.4,45.6
							c0.2-0.3,0.5-0.6,0.7-0.9c-4.8-6.1-11.4-18.8-16.1-44.9c-2.1-11.6,1.8-26.9,11.4-45.4C350.1,422.8,349.9,422.5,349.6,422.2z
							 M350.9,422.9L350.9,422.9L350.9,422.9L350.9,422.9z"/>
					</g>
				</g>
				<g>
					<g>
						<path class="st4" d="M353.9,515.4c-5.1-6-12.2-19-17.2-46.7c-2.2-12.6,1.7-28.2,12.2-47.8l0.3-0.6l0.5,0.5
							c0.6,0.6,1.1,1.1,1.6,1.7l0.3,0.4l-0.2,0.3c-9.7,18.4-13.5,33.6-11.5,45c4.7,26.3,11.4,38.9,16.1,44.8l0.2,0.3l-0.2,0.3
							c-0.5,0.6-1,1.3-1.5,1.9l-0.4,0.5L353.9,515.4z M339,468.4c-2.1-11.6,1.8-26.9,11.4-45.4c-0.3-0.3-0.6-0.7-0.9-1
							c-10.1,19.1-14,34.4-11.8,46.6c4.8,26.7,11.5,39.6,16.5,45.7c0.3-0.3,0.6-0.7,0.8-1C350.3,507.2,343.7,494.5,339,468.4z"/>
					</g>
					<g>
						<path class="st2" d="M354.3,516.9l-0.9-1.1c-5.1-6.1-12.3-19.2-17.3-46.9c-2.3-12.7,1.7-28.5,12.3-48.2l0.7-1.3l1.1,1.1
							c0.6,0.6,1.2,1.2,1.6,1.7l0.6,0.7l-0.3,0.6c-9.6,18.3-13.5,33.4-11.4,44.7c4.7,26.2,11.3,38.7,16,44.5l0.5,0.6l-0.5,0.7
							c-0.5,0.6-1,1.3-1.5,1.9L354.3,516.9z M349.7,423.1c-9.7,18.6-13.4,33.5-11.3,45.4c4.6,25.9,11.1,38.6,15.9,44.8
							c0,0,0,0,0.1-0.1c-4.8-6.2-11.3-19-15.9-44.8l0,0C336.4,456.9,340.2,441.6,349.7,423.1C349.7,423.1,349.7,423.1,349.7,423.1z"
							/>
					</g>
				</g>
			</g>
			<g>
				<g>
					<g>
						<path class="st4" d="M307.9,526c0.3-0.3,0.8-0.4,1.2-0.2c0.1,0,0.2,0.1,0.3,0.1c0.1,0.1,10,6.6,22.8,3.9
							c8.1-1.7,15.5-6.6,22.2-14.7c0.5-0.6,1-1.2,1.5-1.8c1.8-2.4,3.6-5,5.3-7.8c24.9-41.5,1.5-69.2-10-82.5c0,0-0.1-0.1-0.1-0.2
							c-0.4-0.5-1-1.1-1.6-1.6c-6-5.8-19.2-14.3-34.4-23.5c-0.6-0.4-1.3-0.8-2-1.2c-0.7-0.4-1.5-0.9-2.2-1.3
							c-1.4-0.8-2.8-1.7-4.3-2.5c-0.5-0.3-0.9-0.6-1.4-0.8c1.4,0,2.9,0,4.3,0c20.2,12,37.4,22.7,43.3,29.6c8,9.4,16,19.9,19.7,33.4
							c4.5,16.5,1.4,33.9-9.4,51.8c-8.7,14.4-18.9,22.9-30.5,25.4c-8.5,1.8-15.7-0.1-20.1-2c5.8,6.9,20.8,20.8,47.3,20.9
							c0.1,0,0.3,0,0.4,0c27.7,0,47-14,57.4-41.7c4.9-13.1,5.9-33.1,2.7-52.3c-2.8-16.3-9.8-39.7-27.6-58.2
							c-2.5-2.6-5.1-5.1-7.9-7.6c1.1,0,2.2-0.1,3.2-0.1c2.2,2,4.4,4.1,6.4,6.2c6,6.3,10.8,13.1,14.7,20.1c0.5,0.9,1,1.8,1.4,2.6
							c6.8,13.1,10.3,26.3,12,36.7c3,17.5,2.4,35.7-1.3,48.9c-0.3,0.9-0.6,1.9-0.8,2.8c-0.2,0.6-0.4,1.2-0.6,1.7
							c-5,13.4-12.3,23.9-21.5,31.1c-10.3,8-23.1,12.1-38.1,12.1c-0.1,0-0.3,0-0.4,0c-19-0.1-32.1-7.1-39.8-12.9
							c-1.7-1.3-3.2-2.5-4.5-3.7c0,0,0,0,0,0c-2.9-2.7-4.9-5.1-6.2-6.7c-1-1.4-1.6-2.2-1.6-2.3C307.4,526.9,307.5,526.4,307.9,526z"
							/>
					</g>
					<g>
						<path class="st2" d="M360.2,553.7l-0.4,0c-19.1-0.1-32.4-7.1-40.2-13c-1.6-1.2-3.1-2.5-4.5-3.8c-3-2.8-5.1-5.3-6.3-6.8
							c-1-1.4-1.6-2.2-1.7-2.4c-0.4-0.7-0.3-1.6,0.3-2.1l0,0c0.5-0.4,1.2-0.6,1.8-0.3c0.1,0.1,0.3,0.1,0.4,0.2
							c0.1,0.1,9.9,6.4,22.3,3.8c7.9-1.7,15.2-6.5,21.8-14.5c0.5-0.6,1-1.2,1.5-1.8c1.8-2.4,3.6-5,5.2-7.7
							c24.8-41.3,1.4-68.7-9.9-81.9l0.4-0.5l-0.5,0.4c-0.4-0.5-0.9-1-1.5-1.6c-6.6-6.4-21.8-15.9-34.3-23.4l-4.1-2.5
							c-1.4-0.8-2.8-1.7-4.3-2.5l-3.3-1.9l6.7-0.1l0.1,0.1c18.9,11.2,37.3,22.5,43.4,29.7c8.1,9.4,16.1,20,19.8,33.6
							c4.6,16.6,1.4,34.2-9.4,52.3c-8.7,14.6-19.1,23.2-30.9,25.7c-7.2,1.5-13.6,0.4-18.1-1.1c6.3,6.8,21,18.8,45.2,18.9l0.4,0
							c27.4,0,46.5-13.9,56.8-41.3c4.9-13,5.9-32.9,2.6-52c-2.8-16.2-9.8-39.5-27.4-57.9c-2.3-2.4-5-5-7.9-7.6l-1.1-1l1.5,0
							c1.1,0,2.2-0.1,3.2-0.1l0.3,0l0.2,0.2c2.3,2.1,4.5,4.2,6.4,6.2c5.6,5.9,10.6,12.7,14.8,20.2c0.5,0.9,1,1.8,1.4,2.7
							c5.7,11,9.8,23.4,12.1,36.8c3,17.4,2.5,35.8-1.3,49.2c-0.3,1-0.6,1.9-0.9,2.8c-0.2,0.6-0.4,1.2-0.6,1.7
							c-5.1,13.5-12.4,24.1-21.7,31.4C388.3,549.6,375.4,553.7,360.2,553.7z M308.3,526.4c-0.2,0.2-0.2,0.4-0.1,0.6
							c0.1,0.2,0.6,1,1.6,2.3c1.2,1.5,3.2,4,6.1,6.6c1.5,1.3,2.9,2.6,4.5,3.7c7.6,5.8,20.6,12.7,39.4,12.8l0.4,0
							c14.9,0,27.6-4,37.7-11.9c9.1-7.1,16.3-17.5,21.3-30.8c0.2-0.5,0.4-1.1,0.6-1.7c0.3-0.9,0.6-1.8,0.8-2.7
							c3.7-13.2,4.2-31.4,1.3-48.7c-2.3-13.3-6.3-25.6-12-36.5c-0.5-0.9-0.9-1.8-1.4-2.6c-4.1-7.4-9-14.1-14.6-19.9
							c-1.9-1.9-3.9-4-6.2-6c-0.5,0-1,0-1.5,0.1c2.5,2.3,4.8,4.5,6.8,6.6c17.8,18.7,24.9,42.1,27.7,58.5c3.3,19.3,2.3,39.4-2.7,52.6
							c-10.5,27.9-30,42.1-58,42.1l-0.4,0c-27.1-0.1-42.4-14.8-47.8-21.1l-1.6-1.9l2.3,1c4.4,1.8,11.5,3.7,19.7,1.9
							c11.4-2.4,21.5-10.8,30.1-25.1c10.7-17.8,13.8-35,9.3-51.4c-3.7-13.4-11.6-23.8-19.6-33.1c-6-7-24.2-18.3-43-29.4l-2,0
							c1.3,0.8,2.6,1.5,3.9,2.3l4.1,2.5c18.7,11.2,29.4,18.5,34.6,23.5c0.6,0.6,1.1,1.1,1.6,1.7l0.1,0.2
							c11.4,13.4,35.3,41.2,10,83.2c-1.7,2.8-3.5,5.5-5.3,7.8c-0.5,0.6-1,1.3-1.5,1.9c-6.8,8.2-14.3,13.2-22.5,14.9
							c-13.1,2.8-23.2-3.9-23.3-4C308.7,526.3,308.5,526.3,308.3,526.4L308.3,526.4z"/>
					</g>
				</g>
				<g>
					<g>
						<path class="st4" d="M360.2,553.6l-0.4,0c-19.1-0.1-32.4-7.1-40.1-13c-1.6-1.2-3.1-2.4-4.6-3.8c-3-2.7-5-5.2-6.2-6.8
							c-1.1-1.4-1.6-2.4-1.7-2.4c-0.4-0.7-0.3-1.5,0.3-2v0c0.5-0.4,1.1-0.5,1.7-0.3c0.1,0.1,0.3,0.1,0.4,0.2
							c0.1,0.1,9.9,6.5,22.4,3.8c7.9-1.7,15.3-6.6,21.9-14.5c0.5-0.6,1-1.2,1.5-1.8c1.8-2.3,3.6-5,5.3-7.7
							c24.8-41.4,1.4-68.8-9.9-82l-0.1-0.2c-0.4-0.5-0.9-1-1.5-1.6c-6.6-6.4-21.8-15.9-34.4-23.4l-4-2.4c-1.4-0.8-2.8-1.7-4.3-2.5
							l-2.9-1.7l6.3-0.1l0.1,0.1c18.9,11.2,37.3,22.5,43.4,29.7c8.1,9.4,16,20,19.8,33.6c4.6,16.6,1.4,34.1-9.4,52.2
							c-8.7,14.5-19.1,23.2-30.8,25.6c-7.4,1.6-13.9,0.3-18.5-1.3c6.2,6.7,20.9,19.1,45.6,19.2l0.4,0c27.5,0,46.6-13.9,56.9-41.4
							c4.9-13,5.9-33,2.6-52.1c-2.8-16.3-9.8-39.5-27.4-58c-2.3-2.4-5-5-7.9-7.6l-0.9-0.8l1.2,0c1.1,0,2.2-0.1,3.2-0.1l0.2,0
							l0.2,0.1c2.4,2.2,4.5,4.2,6.4,6.2c5.6,5.9,10.6,12.7,14.8,20.2c0.5,0.9,1,1.8,1.4,2.7c5.7,11,9.8,23.4,12.1,36.8
							c3,17.4,2.5,35.7-1.3,49.1c-0.3,1-0.6,1.9-0.9,2.8c-0.2,0.6-0.4,1.2-0.6,1.7c-5.1,13.5-12.4,24-21.6,31.3
							C388.3,549.5,375.4,553.6,360.2,553.6C360.2,553.6,360.2,553.6,360.2,553.6z M386.1,391.6c2.6,2.3,4.9,4.6,7,6.8
							c17.8,18.6,24.9,42.1,27.7,58.5c3.3,19.3,2.3,39.4-2.7,52.5c-10.5,27.9-29.9,42-57.9,42l-0.4,0c-27.1-0.1-42.4-14.8-47.7-21.1
							l-1.3-1.6l1.9,0.8c4.5,1.8,11.5,3.7,19.8,1.9c11.4-2.4,21.6-10.9,30.1-25.1c10.7-17.8,13.8-35.1,9.3-51.4
							c-3.7-13.4-11.6-23.9-19.6-33.2c-6-7-24.2-18.3-43-29.4l-2.4,0c1.4,0.8,2.8,1.7,4.2,2.5l4.1,2.5
							c18.7,11.2,29.3,18.5,34.5,23.5c0.6,0.6,1.1,1.1,1.6,1.7l0.1,0.2c11.4,13.4,35.2,41.1,10,83.1c-1.7,2.8-3.5,5.5-5.3,7.8
							c-0.5,0.6-1,1.3-1.5,1.9c-6.8,8.1-14.3,13.1-22.5,14.9c-13,2.8-23.1-3.9-23.2-4c0,0-0.1,0-0.1-0.1c-0.2-0.1-0.5,0-0.7,0.1
							c-0.2,0.2-0.3,0.5-0.1,0.8c0,0,0.5,0.9,1.6,2.3c1.2,1.6,3.2,4,6.2,6.7c1.4,1.3,2.9,2.5,4.4,3.7c7.6,5.8,20.7,12.7,39.5,12.8
							l0.4,0c0,0,0,0,0,0c14.9,0,27.6-4,37.8-12c9.2-7.1,16.3-17.5,21.3-30.9c0.2-0.6,0.4-1.1,0.6-1.7c0.3-0.9,0.6-1.8,0.8-2.7
							c3.8-13.3,4.2-31.5,1.3-48.7c-2.3-13.3-6.3-25.6-12-36.5c-0.5-0.9-0.9-1.8-1.4-2.6c-4.1-7.4-9-14.1-14.6-20
							c-1.9-2-3.9-3.9-6.2-6C387.3,391.5,386.7,391.5,386.1,391.6z"/>
					</g>
					<g>
						<path class="st2" d="M360.2,554.2l-0.4,0c-19.3-0.1-32.7-7.2-40.5-13.1c-1.6-1.2-3.1-2.5-4.6-3.9c-3-2.8-5.1-5.3-6.3-6.9
							c-1.1-1.5-1.7-2.4-1.7-2.4c-0.5-0.9-0.4-2,0.4-2.7c0.6-0.6,1.1,0.3,2,0.6c0.2,0.1,0.3-0.5,0.5-0.4c0.1,0.1,10.1,5.9,22.3,3.3
							c7.8-1.6,15-6.5,21.5-14.3c0.5-0.6,1-1.2,1.4-1.8c1.8-2.3,3.6-4.9,5.2-7.7c24.6-41,1.3-68.2-9.9-81.3l-0.1-0.2
							c-0.4-0.5-0.9-1-1.5-1.6c-6.5-6.4-21.8-15.8-34.3-23.4l-13.1-7.8l8.6-0.1l0.3,0.2c19,11.2,37.4,22.6,43.6,29.8
							c8.1,9.5,16.1,20.1,19.9,33.8c4.6,16.8,1.4,34.5-9.5,52.6c-8.8,14.7-19.3,23.4-31.2,25.9c-6.5,1.4-12.3,0.6-16.5-0.6
							c7.1,7.1,21.2,17.2,43.5,17.3l0.4,0c27.2,0,46.1-13.8,56.3-41c4.8-12.9,5.8-32.7,2.6-51.8c-2.8-16.2-9.7-39.3-27.3-57.7
							c-2.3-2.4-5-5-7.8-7.5l-2-1.8l2.7-0.1c1.1,0,2.2-0.1,3.2-0.1l0.5,0l0.4,0.3c2.4,2.2,4.5,4.2,6.4,6.3
							c5.7,5.9,10.7,12.8,14.8,20.3c0.5,0.9,1,1.8,1.4,2.7c5.8,11.1,9.8,23.5,12.1,37c3,17.5,2.5,35.9-1.3,49.4
							c-0.3,1-0.6,1.9-0.9,2.8c-0.2,0.6-0.4,1.2-0.6,1.7c-5.1,13.6-12.5,24.2-21.8,31.6C388.6,550.1,375.5,554.2,360.2,554.2z
							 M310.2,529c0,0,0.1,0.1,0.1,0.1c1.2,1.5,3.2,3.9,6.1,6.6c1.4,1.3,2.9,2.5,4.4,3.7c7.6,5.7,20.5,12.6,39.1,12.7l0.4,0
							c10.9,0,20.6-2.2,29-6.5c-8.4,4.3-18,6.4-29,6.4l-0.4,0c-27.3-0.1-42.8-14.9-48.2-21.3L310.2,529z M392.6,543.7
							C392.6,543.7,392.5,543.7,392.6,543.7C392.5,543.7,392.6,543.7,392.6,543.7z M387.6,392.1c2.2,2,4.2,4,6,5.9
							c17.9,18.8,25,42.3,27.8,58.8c3.3,19.3,2.3,39.6-2.7,52.8c-5.9,15.7-14.6,27.1-26.1,34.1c1.7-1.1,3.4-2.2,5-3.5
							c9.1-7.1,16.2-17.4,21.1-30.6c0.2-0.5,0.4-1.1,0.6-1.7c0.3-0.9,0.6-1.8,0.8-2.7c3.7-13.2,4.2-31.3,1.3-48.5
							c-2.3-13.2-6.3-25.4-11.9-36.4c-0.5-0.9-0.9-1.7-1.4-2.6c-4.1-7.4-9-14-14.5-19.8C391.8,396,389.8,394.1,387.6,392.1
							L387.6,392.1z M313,529c4.4,1.8,11.3,3.6,19.4,1.9c11.2-2.4,21.2-10.7,29.7-24.9c9.7-16.2,13.2-32,10.2-47.1
							c2.5,13,0.8,28.7-10.2,47c-1.7,2.8-3.5,5.5-5.4,7.9c-0.5,0.6-1,1.3-1.5,1.9c-6.8,8.2-14.5,13.3-22.8,15.1
							c-13.3,2.8-23.6-4-23.7-4.1C308.7,526.8,313,529,313,529z M309.1,392.9c0.8,0.5,1.6,0.9,2.3,1.4l4.1,2.5
							c18.7,11.2,29.4,18.5,34.7,23.6c0.6,0.6,1.2,1.2,1.6,1.7l0.1,0.1c1.3,1.5,2.7,3.2,4.3,5.1c-1.4-1.8-2.9-3.5-4.3-5.2
							C345.9,415.2,327.9,404,309.1,392.9L309.1,392.9z"/>
					</g>
				</g>
			</g>
		</g>
	</g>
	<g>
		<g>
			<g>
				<g>
					<path class="st3" d="M288,347.8c-8.3-3.9-14.8-7-18.7-9.2c-3.4-1.9-8.3-5-13.7-9c0.9-1,1.7-2.1,2.6-3.3c6-8.3,12.1-22.8,7-45.2
						c-5.3-23.7-15.1-33.2-22.4-37c-2.4-1.3-4.7-2-6.7-2.4c5.7-6.4,13.2-12.2,20.8-14.4c15.3-4.4,31.2,3,35.3,4.8
						c-5.8,10.6-8.1,22.7-5.9,37.8c4,26.8,9.8,44.3,18.9,56.7c-3.5,10.9-9.5,18.5-13.7,22.8C290.3,348.9,289.1,348.3,288,347.8z"/>
				</g>
				<g>
					<path class="st2" d="M291.6,350.2l-3.9-1.9c-8.3-3.9-14.9-7-18.7-9.2c-3.2-1.8-8.2-4.9-13.8-9l-0.5-0.4l0.4-0.5
						c0.9-1,1.8-2.1,2.6-3.2c5.9-8.2,11.9-22.5,6.9-44.7c-5.3-23.5-14.9-32.9-22.1-36.6c-2.1-1.1-4.3-1.9-6.6-2.3l-1.1-0.2l0.7-0.8
						c6.3-7.2,14-12.5,21.1-14.6c14.9-4.4,30.2,2.4,35.3,4.6l1.1,0.5l-0.3,0.6c-6,11-7.9,23.2-5.8,37.4c4,26.9,9.8,44.3,18.8,56.4
						l0.2,0.3l-0.1,0.3c-3.5,11-9.5,18.6-13.8,23L291.6,350.2z M256.5,329.5c5.3,3.9,10,6.8,13.1,8.5c3.8,2.2,10.4,5.3,18.7,9.2
						l3.1,1.5c4.2-4.4,9.8-11.6,13.1-21.9c-9-12.3-14.8-29.8-18.9-56.7c-2.1-14.2-0.3-26.5,5.6-37.6c-5.1-2.2-19.9-8.7-34.2-4.5
						c-6.6,1.9-13.7,6.8-19.8,13.4c2,0.5,4,1.2,5.8,2.2c7.4,3.9,17.4,13.5,22.7,37.4c5.1,22.6-1.1,37.3-7.1,45.7
						C258,327.6,257.3,328.6,256.5,329.5z"/>
				</g>
			</g>
		</g>
		<g>
			<g>
				<g>
					<path class="st4" d="M265.2,280.3c5,22-1,36.4-7,44.5c-0.8,1.2-1.7,2.2-2.6,3.2c-0.6-0.5-1.3-1-2-1.5c0.8-0.9,1.7-2,2.5-3.1
						c5.7-7.8,11.5-21.5,6.6-42.7c-5-21.8-13.8-30.8-20.3-34.4c-3.1-1.8-6-2.5-8.1-2.8c0.6-0.7,1.2-1.4,1.8-2.1
						c2,0.4,4.3,1.1,6.7,2.3C250,247.6,259.8,257,265.2,280.3z"/>
				</g>
				<g>
					<path class="st2" d="M255.6,328.9l-0.5-0.3c-0.7-0.5-1.3-1-2-1.5l-0.5-0.4l0.4-0.5c0.9-1,1.7-2,2.4-3
						c5.6-7.7,11.3-21.2,6.5-42.2c-4.9-21.6-13.6-30.4-20-34c-2.6-1.4-5.2-2.4-7.9-2.7l-1.1-0.1l0.7-0.9c0.6-0.7,1.2-1.4,1.8-2.1
						l0.2-0.3l0.4,0.1c2.4,0.5,4.7,1.3,6.9,2.4c7.4,3.8,17.4,13.3,22.7,36.9c5.1,22.3-1.1,36.8-7.1,45c-0.8,1.1-1.7,2.2-2.6,3.2
						L255.6,328.9z M254.5,326.5c0.3,0.2,0.6,0.5,1,0.7c0.8-0.9,1.5-1.8,2.2-2.7c5.9-8,11.9-22.2,6.9-44
						c-5.3-23.1-14.9-32.4-22.1-36c-2-1-4.1-1.8-6.2-2.2c-0.3,0.3-0.6,0.6-0.8,1c2.5,0.4,4.9,1.3,7.3,2.7
						c6.6,3.7,15.6,12.8,20.6,34.8c4.9,21.5-1,35.3-6.8,43.2C255.9,324.8,255.2,325.6,254.5,326.5z"/>
				</g>
			</g>
			<g>
				<g>
					<path class="st4" d="M255.2,328.5c-0.7-0.5-1.3-1-2-1.5l-0.4-0.3l0.4-0.4c0.9-1,1.7-2,2.4-3c5.6-7.7,11.4-21.3,6.6-42.3
						c-4.9-21.6-13.6-30.5-20.1-34.1c-2.6-1.5-5.3-2.4-7.9-2.7l-0.9-0.1l0.6-0.7c0.6-0.7,1.2-1.4,1.8-2.1l0.2-0.2l0.3,0.1
						c2.4,0.4,4.7,1.3,6.9,2.4c7.4,3.8,17.3,13.3,22.7,36.8c5.1,22.2-1.1,36.7-7.1,45c-0.8,1.1-1.7,2.2-2.6,3.2l-0.3,0.4
						L255.2,328.5z M264.6,280.4c-5.3-23.2-15-32.4-22.1-36.1c-2-1-4.1-1.8-6.3-2.2c-0.3,0.4-0.6,0.7-1,1.1c2.5,0.4,5,1.3,7.4,2.7
						c6.6,3.7,15.6,12.8,20.6,34.8c4.9,21.4-1,35.3-6.7,43.1c-0.7,0.9-1.4,1.8-2.1,2.7c0.4,0.3,0.7,0.6,1.1,0.8
						c0.8-0.9,1.5-1.8,2.2-2.8C263.6,316.5,269.6,302.3,264.6,280.4L264.6,280.4L264.6,280.4z"/>
				</g>
				<g>
					<path class="st2" d="M255.7,330.6l-0.9-0.6c-0.7-0.5-1.3-1-2-1.5l-1-0.7l0.8-0.9c0.9-1,1.7-2,2.4-3c5.6-7.7,11.2-21.2,6.4-42.3
						c-4.9-21.6-13.4-30.5-19.8-34.1c-2.5-1.4-5.1-2.3-7.7-2.7l-2-0.3l1.3-1.6c0.6-0.7,1.2-1.5,1.8-2.2l0.4-0.5l0.7,0.1
						c2.4,0.5,4.8,1.3,7.1,2.5c7.5,3.9,17.6,13.6,23,37.7c5.1,22.7-1.1,37.5-7.2,46c-0.8,1.1-1.7,2.3-2.7,3.3L255.7,330.6z"/>
				</g>
			</g>
		</g>
		<g>
			<g>
				<g>
					<path class="st3" d="M376.7,328.9c-4-2.4-15.9,2.6-9.5-15.7c3.4-9.1,8.8-27,6.2-44.8c-2.8-19.2-9.6-28.5-28.2-36.4
						c3.8-5.2,8.5-9.2,14-11.8c15.1-7.3,31.6-2.2,33.6-1.5c5.2,3.8,10.4,8.9,13.8,14.3c3.1,5,4.7,8.8,5.5,11.4
						c-2.5,5.7-5,12.7-7.3,21.2c-9,33.8,17.4,69.2,19.9,77.2c-7.1-2.9-32.8-6.1-36-8.3C386.5,332.9,380,330.9,376.7,328.9z"/>
					<path class="st2" d="M428.2,346.7l-4.6-1.8c-3.3-1.3-11.5-2.9-18.7-4.2c-10.9-2-15.8-3.1-17.7-4.3c-0.8-0.6-3-1.5-5-2.3
						c-2.4-1-5-2-6.8-3.1c-0.5-0.3-1.8-0.4-3-0.5c-2.7-0.3-6.3-0.6-8.3-3.7c-1.9-2.9-1.6-7.5,0.7-14.3c3.4-8.9,8.6-26.4,6.1-43.7
						c-2.8-18.8-9.3-27.2-26.8-34.6l-2.7-1.2l1.8-2.4c4-5.5,9-9.8,14.8-12.6c15.9-7.7,33.4-2.3,35.3-1.7l0.7,0.3
						c6,4.4,11.1,9.7,14.4,15c3.3,5.3,5,9.4,5.8,11.9l0.3,0.9l-0.4,0.8c-2.7,6.1-5.1,13.1-7.2,20.8c-6.9,25.8,7.7,52.6,15.5,67.1
						c2.2,4,3.8,7,4.3,8.9L428.2,346.7z M348.9,231.1c17,7.8,23.9,17.5,26.8,37c2.7,18.4-2.8,36.7-6.3,46c-2.3,6.7-1.7,9.2-1.2,10.1
						c0.7,1.1,2.3,1.3,4.8,1.5c1.7,0.2,3.5,0.3,4.9,1.2l0,0c1.5,0.9,4,1.9,6.1,2.8c2.5,1,4.7,1.9,6,2.8c1.4,0.9,9.7,2.4,15.9,3.6
						c5.1,1,10.4,1.9,14.4,2.9c-0.6-1.1-1.2-2.3-1.9-3.6c-8.1-15-23.2-42.9-15.9-70.5c2-7.6,4.4-14.6,7-20.7c-0.8-2.3-2.3-5.7-5-10
						c-2.9-4.6-7.6-9.5-12.9-13.4c-2.9-0.9-17.9-5-31.4,1.5C355.9,224.4,352.1,227.3,348.9,231.1z"/>
				</g>
			</g>
		</g>
		<g>
			<g>
				<path class="st3" d="M295.6,352.2c-33.4-9.3-72.8-37.3-74.6-72.2c-1.6-30.6,20.1-50.6,49.8-52.6c7.1-0.5,13.8,0.6,20.1,2.8
					c-12.5-11.1-27.7-18-44.8-17.8c-45,0.6-77.7,31.8-76.9,77.1c0.5,29.1,27.5,62.1,58.5,77.7c7.3-3.1,16.1-7.4,29.1-10.2
					C271.9,353.8,284.9,352.9,295.6,352.2z"/>
				<path class="st2" d="M227.6,369.6c-0.4,0-0.7-0.1-1.1-0.3c-33.5-16.9-59.2-51.2-59.8-79.8c-0.4-22.1,6.8-41.5,20.9-56
					c14.4-14.9,35.1-23.2,58.4-23.5c16.5-0.3,32.6,6.1,46.4,18.4c0.8,0.7,1,2,0.5,3c-0.6,1-1.8,1.4-2.8,1
					c-6.2-2.2-12.6-3.1-19.1-2.7c-30,2-49.1,22.1-47.6,50.1c1.8,32.8,38.9,60.6,72.9,70.1c1.1,0.3,1.8,1.4,1.7,2.5s-1.1,2-2.2,2.1
					c-11.5,0.7-24,1.7-38.6,4.8c-10.9,2.3-19,5.9-25.5,8.7c-1.1,0.5-2.1,0.9-3.2,1.4C228.2,369.6,227.9,369.6,227.6,369.6z
					 M246.8,214.8c-0.2,0-0.5,0-0.7,0c-21.9,0.3-41.5,8.1-55,22.1c-13.2,13.6-19.9,31.8-19.5,52.6c0.5,26.7,24.6,58.8,56.2,75.2
					c0.7-0.3,1.4-0.6,2.1-0.9c6.7-2.9,15-6.6,26.4-9c10.1-2.2,19.1-3.3,27.5-4c-32.1-12.4-63.4-39.3-65.1-70.6
					c-1.6-30.3,19.8-52.9,52-55.1c3.4-0.2,6.7-0.1,10,0.3C270.1,218.4,258.5,214.8,246.8,214.8z"/>
			</g>
		</g>
		<g>
			<g>
				<g>
					<path class="st3" d="M426.6,343.1c-35.9-7.1-80.7-30.9-90.9-66.5c-9-31.1,8.1-53.3,37.6-57.5c7-1,15.1-0.2,21.9,1.7
						c-15.3-10.4-33.2-16.6-50.5-15.1c-45.3,3.9-70.7,38.3-59,84.6c7.5,29.7,40.1,59.2,75,72.8c6.6-3.7,20.8-0.5,33.2-4.3
						C408.5,354.3,416,344.6,426.6,343.1z"/>
				</g>
				<g>
					<path class="st2" d="M361,365.7l-1-0.4c-37.7-14.7-69.1-45.4-76.5-74.5c-5.8-22.9-2.8-44.3,8.5-60.2
						c11.1-15.7,29.8-25.4,52.6-27.3c16.7-1.5,35.8,3.2,52,15.5c3.6,2.7,13,13.2,13,13.2s-9.2-7.5-15-10c-6.7-2.9-14-2.3-21.3-1.2
						c-14.3,2.1-25.3,9.1-31.7,19c-6.3,9.7-7.5,22.2-3.5,36.1c9.9,34.5,53.2,57.8,89.1,64.8l13.8,2.7l-14,1.9
						c-5,0.7-9.3,3.4-14.3,6.6c-5,3.1-10.6,6.7-18,9c-6.5,2-13.3,2.1-19.3,2.3c-5.4,0.1-10.6,0.2-13.4,1.8L361,365.7z M349.9,207.8
						c-1.7,0-3.3,0.1-4.9,0.2c-21.4,1.9-38.8,10.9-49.1,25.4c-10.6,14.9-13.3,34.4-7.8,56.3c6.9,27.5,36.7,56.5,72.6,70.8
						c3.8-1.7,8.8-1.8,14.6-1.9c5.7-0.1,12.2-0.3,18.1-2.1c6.8-2.1,13.3-5.9,19.1-6.3c4.4-0.3,18.8-4.9,5.5-6.7
						c-35.4-9.1-74.7-32.6-84.4-66.2c-4.4-15.2-3-29,4.1-39.9c7.1-11,19.7-18.3,35.4-20.5c3.2-0.5,6.7-0.6,10.3-0.3
						C372.2,210.8,360.7,207.8,349.9,207.8z"/>
				</g>
			</g>
		</g>
		<g>
			<g>
				<g>
					<path class="st2" d="M295.2,352.1l-4.4-2.2l1.1-1.1c4.1-4.2,9.7-11.4,13-21.9l0.7-2.2l1.4,1.9c0.6,0.8,1.1,1.6,1.7,2.3l0.4,0.5
						l-0.2,0.6c-1.8,5.2-4.3,10.2-7.4,14.6c-1.7,2.4-3.6,4.8-5.6,6.9L295.2,352.1z"/>
				</g>
			</g>
		</g>
		<g>
			<path class="st2" d="M282.6,352.2"/>
		</g>
	</g>
	<g>
		<g>
			<g>
				<g>
					<path class="st3" d="M298.2,454.9c-3-16.6-10.4-40.4-29.3-59.3c-2.6-2.6-5.4-5.2-8.4-7.7c-17.3,0.5-37.2,0.6-56.7,0.7
						c-5.8,0-8.7,5.1-8.8,5.2c0,0-2.4,1.3-2.7,1.6c19.6,11.2,28.4,16.8,34.2,23.4c8.5,9.5,16.9,20.3,20.9,34
						c4.8,16.8,1.5,34.5-9.9,52.7c-9.2,14.7-20.1,23.4-32.3,25.8c-9,1.8-16.7-0.1-21.3-2c6.2,7,22.1,21.1,50.2,21.3
						c0.1,0,0.3,0,0.4,0c29.4,0,49.9-14.3,60.9-42.4C300.6,494.9,301.7,474.5,298.2,454.9z"/>
					<path class="st2" d="M234.5,553H234c-29.4-0.1-46.2-15.5-52-22c-0.7-0.8-0.8-2-0.2-2.9c0.6-0.9,1.8-1.2,2.8-0.8
						c4.5,1.8,11.6,3.6,20,1.9c11.6-2.3,22-10.7,30.8-24.8c11-17.6,14.3-34.7,9.7-50.8c-3.8-13.3-12.1-23.7-20.4-33
						c-5.8-6.5-15-12.3-33.6-22.9c-0.6-0.4-1.1-1-1.2-1.7c-0.1-0.7,0.1-1.4,0.6-2c0.2-0.3,0.5-0.6,2.8-1.8c1.9-2.8,5.6-5.8,10.4-5.8
						c19.5-0.1,39.4-0.1,56.6-0.7c0.6,0,1.2,0.2,1.6,0.6c3.1,2.7,6,5.3,8.5,7.9c19.3,19.3,26.9,43.6,29.9,60.5l0,0
						c3.5,19.9,2.4,40.8-2.9,54.5C286.2,538.2,264.9,553,234.5,553z M192.1,534c8,6.5,21.7,14.2,41.9,14.2h0.4
						c28.3,0,48.1-13.8,58.7-40.9c5.1-12.9,6.1-32.8,2.7-52l0,0c-2.9-16.3-10.2-39.6-28.6-58c-2.3-2.3-4.8-4.6-7.6-7
						c-17.1,0.5-36.7,0.6-55.7,0.6c-4.2,0-6.5,3.4-6.9,4.1l0,0c-0.1,0.1-0.1,0.2-0.2,0.3c17.1,9.9,25.6,15.4,31.4,21.9
						c8.7,9.7,17.3,20.7,21.4,34.9c5,17.4,1.6,35.8-10.2,54.6c-9.5,15.2-20.9,24.3-33.9,26.9C200.7,534.7,196.1,534.6,192.1,534z"/>
				</g>
			</g>
		</g>
		<g>
			<g>
				<g>
					<g>
						<path class="st2" d="M181.2,529.6c0.1,0.1,0.2,0.2,0.3,0.4c0-0.1-0.1-0.1-0.1-0.1c-0.1-0.1-0.1-0.3-0.2-0.4L181.2,529.6z"/>
					</g>
				</g>
			</g>
			<g>
				<g>
					<g>
						<g>
							<path class="st3" d="M243.8,402.9c-34.6,38.7-37.1,52.4-34.6,72.5c3.5,28.7,16.3,33.9,21.3,39.7c-7,8.2-12.5,11.2-21.4,15
								c-12.5,5.3-25.7-1.8-25.8-1.8c-0.1-0.1-0.2-0.1-0.3-0.1c-4.6-5.6-9.8-13.1-12.5-20.9c-4.7-13.8-13.5-39.5,0-75.3
								c5.5-14.7,12.5-26,18.6-34.2C215.3,399.3,213.6,390.9,243.8,402.9z"/>
							<path class="st2" d="M199,534.5c-9.4,0-16.9-4.1-17-4.2l-0.6-0.2l-0.2-0.4c-6.3-7.7-10.6-14.9-12.9-21.6
								c-4.8-14.1-13.8-40.3,0-76.9c4.8-12.8,11.2-24.5,19-34.8l0.8-1l1.3,0.1c9,0.5,14.6-0.2,19.5-0.8c9.2-1.2,15.8-2,35.9,6.1
								l3.1,1.3l-2.2,2.5c-33.9,37.8-36.4,51.2-34.1,70.7c2.7,22.4,11.3,29.9,17,34.9c1.4,1.2,2.7,2.4,3.8,3.6l1.3,1.5l-1.3,1.5
								c-7.1,8.2-12.6,11.5-22.2,15.6C206.3,533.9,202.5,534.5,199,534.5z M184.5,526.4c0,0,12.2,6.5,23.6,1.6
								c8.4-3.6,13.2-6.3,19.1-12.7c-0.6-0.5-1.2-1.1-1.9-1.7c-6.2-5.4-15.6-13.6-18.6-37.9c-2.5-20.5,0-34.5,33-71.8
								c-16.5-6.3-22.1-5.6-30.4-4.5c-4.6,0.6-10.3,1.3-19,0.9c-7.2,9.7-13.1,20.7-17.6,32.6c-13.2,35-4.6,60.2,0,73.7
								C174.8,512.5,178.8,519.3,184.5,526.4C184.5,526.3,184.5,526.3,184.5,526.4L184.5,526.4z"/>
						</g>
					</g>
				</g>
				<g>
					<g>
						<g>
							<path class="st2" d="M227,423.5L227,423.5L227,423.5L227,423.5z"/>
						</g>
					</g>
				</g>
				<g>
					<g>
						<g>
							<path class="st2" d="M265.6,392.1L265.6,392.1c2.4,2.1,4.4,4,6.3,5.9c2.2,2.2,4.2,4.5,6.2,7c-1.9-2.4-4-4.7-6.2-6.9
								C270,396.2,267.8,394.2,265.6,392.1z M250.6,470.6c0-0.9,0-1.7-0.1-2.5C250.5,468.9,250.5,469.7,250.6,470.6z M250.5,467.8
								c0-0.8-0.1-1.6-0.2-2.4C250.3,466.2,250.4,467,250.5,467.8z M250.2,465c-0.1-0.7-0.2-1.5-0.3-2.2
								C250,463.5,250.1,464.2,250.2,465z M225.6,524c-0.8,0.7-1.7,1.4-2.5,2.1C224,525.4,224.8,524.7,225.6,524z M222.7,526.4
								c-1.7,1.3-3.5,2.4-5.3,3.4C219.2,528.8,221,527.7,222.7,526.4z M217,530c-0.8,0.4-1.6,0.8-2.4,1.1
								C215.3,530.8,216.2,530.4,217,530z M213.3,531.6c-0.8,0.3-1.6,0.6-2.4,0.8C211.7,532.2,212.5,531.9,213.3,531.6z
								 M278.7,405.8c0.9,1.1,1.7,2.2,2.6,3.4C280.4,408,279.5,406.9,278.7,405.8z"/>
						</g>
					</g>
				</g>
			</g>
		</g>
	</g>
	<g>
		<path class="st3" d="M424.9,345.7c14.2-3.9,26-9.4,35.5-16.3l0.8-0.6c16.4-12.4,25.1-29.3,25.2-50.1c0.1-16.2-3.6-29.3-11.1-39.2
			l-1-1.3c-1.2-1.5-2.5-2.9-3.9-4.2c-3.2-3.1-6.7-5.5-10.1-7.3c-6.6-4.4-18.9-7.3-23.4-8.2c3.1-2.2,7.9-5.1,14.1-7.3
			c5.2-1.9,11.9-3.5,19.8-3.5c8,0,17.1,1.6,27,6.2c18.7,8.6,34.2,30,40.6,55.8c6.4,26.1,2.4,51.1-11.2,68.5
			c-23.8,30.6-63.4,49.7-120.9,58.3c-19.6,3-54.5,3.1-88.3,3.2c-36.6,0.1-74.4,0.2-93.4,3.9c-19.2,3.7-34.4,14.9-43.8,23.6
			c-6.2,5.7-10.7,11-13.3,14.4c0.7-4.9,2.6-13.5,6.8-23.4c6.2-14.2,18.8-34.2,44.3-48.5c38.8-21.7,114.6-19.8,155.3-18.9
			c11.3,0.3,19.4,0.5,23.1,0c9.9-1.2,19.1-2.9,27.5-5.2l0,0L424.9,345.7z"/>
		<path class="st2" d="M163.6,450.3l1.4-9c0.8-5.5,2.7-14.1,7-24c6.3-14.6,19.3-35,45.4-49.6c39.3-22,115.6-20.2,156.5-19.2
			c11.2,0.3,19.3,0.5,22.8,0.1c9.7-1.1,18.9-2.8,27.2-5.1l0.5-0.1c13.8-3.8,25.5-9.1,34.7-15.9l0.8-0.6c16-12.1,24.1-28.3,24.3-48.2
			c0.1-15.6-3.5-28.3-10.6-37.7l-1-1.2c-1.1-1.4-2.4-2.7-3.7-4c-2.8-2.7-6.1-5-9.6-7c-6.6-4.4-19.1-7.2-22.8-8l-5.4-1.1l4.5-3.1
			c3.1-2.2,8.1-5.2,14.6-7.6c15.4-5.6,32.4-4.6,48.5,2.8c19.3,8.9,35.3,30.9,41.9,57.4c6.6,26.8,2.4,52.5-11.6,70.5
			c-24.2,31.1-64.2,50.5-122.4,59.2c-19.8,3-54.8,3.1-88.7,3.2c-36.5,0.1-74.2,0.2-93,3.9c-18.6,3.6-33.5,14.5-42.6,23
			c-6,5.6-10.4,10.8-13,14.2L163.6,450.3z M339.6,352.8c-40.4,0-90.9,2.8-119.9,19.1c-24.9,13.9-37.3,33.4-43.3,47.3
			c-2.2,5.1-3.7,9.7-4.8,13.8c2.1-2.3,4.6-4.9,7.5-7.5c9.6-8.9,25.3-20.3,44.9-24.2c19.3-3.8,57.2-3.9,93.9-4
			c33.7-0.1,68.6-0.2,88-3.1c56.9-8.6,95.9-27.4,119.4-57.5c13.1-16.8,17-41.1,10.8-66.5c-6.2-25.1-21.2-45.9-39.3-54.2
			c-15-6.9-30.7-7.8-45-2.7c-3.4,1.2-6.4,2.7-8.8,4c5.8,1.5,13.6,3.9,18.6,7.3c3.7,2,7.3,4.6,10.4,7.6c1.5,1.4,2.8,2.9,4.1,4.5
			l1,1.3c7.9,10.3,11.8,24,11.6,40.7c-0.2,21.5-9,39-26.2,52l-0.8,0.6c-9.7,7.1-21.8,12.7-36.2,16.6l-1.2,0.4l-0.1,0
			c-8.3,2.2-17.4,3.9-27.1,5c-3.8,0.4-12,0.2-23.3,0C364.1,353,352.3,352.8,339.6,352.8z"/>
	</g>
	<g>
		<g>
			<path class="st3" d="M428.1,347.6c3.2-1,6.3-2,9.3-3.2l0,0l0.4-0.2c12.7-4.9,23-11.2,30.9-18.6l0.7-0.7c0.7-0.7,1.4-1.3,2-2
				c-10-8.9-17.8-19.9-21.3-33.5c-7.4-28.3,7.6-54.7,36-61.1c6.8-1.5,18.5-5.4,25.1-3.9c-15.4-11.4-31-18.5-54.5-16.3
				c-44,4.3-67.7,45.7-55.9,94.8C404.6,319,414.6,334.5,428.1,347.6z"/>
		</g>
		<g>
			<path class="st2" d="M424.7,348.3c-14.5-14.1-22.4-29-26.1-44.8c-6.3-26.4-2.9-51.2,9.7-69.7c10.8-16,27.9-25.9,48.1-27.8
				c0.1,0,0.2,0,0.3,0c25.8-2.4,43.6,4.5,54.8,17.4c4.7,5.5,8.4,11.9,8.4,11.9l-7.6-9.3c-4.7-1.1-14.8,1.8-20.9,3.4
				c-1.8,0.5-3.5,0.9-4.9,1.2c-13.1,2.9-23.8,10.5-30.1,21.4c-6.2,10.7-7.7,23.8-4.3,37c3.2,12.2,10.1,23,20.6,32.3c0,0-2,2.9-8,7.8
				c-5.4,4.4-19.1,11-29,15.2C429.9,346.7,424.7,348.3,424.7,348.3z M457.3,210.4c-0.1,0-0.2,0-0.3,0c-18.9,1.8-34.9,11-45,26
				c-11.9,17.5-15.1,41-9.1,66.1c3.5,14.6,10,26.9,23.4,40.1c3-0.9,5.6-1.9,7.9-2.8l0.7-0.3c12.3-4.9,24-11,31.6-18.1
				c0,0-1.5-1.5-1.3-1.6c-10.2-9.5-13.9-17.6-17.1-30c-3.7-14.3-2-28.7,4.8-40.4c6.9-11.9,18.5-20.2,32.8-23.4
				c1.4-0.3,3-0.7,4.8-1.2c4.3-1.1,9.1-2.4,13.6-2.9C490.4,212.6,478,208.5,457.3,210.4z"/>
		</g>
	</g>
	<g>
		<g>
			<g>
				<g>
					<path class="st2" d="M210.1,397.5c-0.2,0-0.5,0-0.7-0.1c-1.3-0.4-2.1-1.8-1.7-3.1c0.5-1.6,3.1-4.9,14.9-8.3
						c1.3-0.4,2.7,0.4,3.1,1.7c0.4,1.3-0.4,2.7-1.7,3.1c-9.3,2.7-11.4,5-11.7,5.3C212,396.9,211.1,397.5,210.1,397.5z M212.5,395.7
						L212.5,395.7L212.5,395.7z M212.5,395.7C212.5,395.7,212.5,395.7,212.5,395.7C212.5,395.7,212.5,395.7,212.5,395.7z"/>
				</g>
			</g>
		</g>
		<g>
			<g>
				<g>
					<path class="st2" d="M244,386.5c-1.2,0-2.3-0.9-2.5-2.1c-0.2-1.4,0.7-2.6,2.1-2.8c9-1.4,19.6-2.6,31.6-3.6
						c1.4-0.1,2.6,0.9,2.7,2.3c0.1,1.4-0.9,2.6-2.3,2.7c-11.8,0.9-22.3,2.1-31.2,3.5C244.2,386.5,244.1,386.5,244,386.5z
						 M296.6,381.6l-0.3-4.9c11.3-0.6,21.9-1,31.6-1.4c1.3-0.1,2.6,1,2.6,2.4c0.1,1.4-1,2.5-2.4,2.6
						C318.4,380.6,307.9,381,296.6,381.6z M349,379.3c-1.3,0-2.5-1-2.5-2.4c-0.1-1.4,1-2.5,2.4-2.6c9.6-0.4,20.9-0.9,31.5-1.7
						c1.4-0.1,2.6,0.9,2.7,2.3c0.1,1.4-0.9,2.5-2.3,2.6c-10.7,0.8-22,1.3-31.6,1.7C349.1,379.3,349.1,379.3,349,379.3z M296.4,379.1
						L296.4,379.1L296.4,379.1z M401.6,375.7c-1.3,0-2.4-0.9-2.5-2.2c-0.2-1.4,0.8-2.6,2.2-2.8c11.8-1.4,21.8-3.2,30.7-5.7
						c1.3-0.4,2.7,0.4,3.1,1.7c0.4,1.3-0.4,2.7-1.8,3c-9.1,2.5-19.4,4.4-31.4,5.8C401.8,375.7,401.7,375.7,401.6,375.7z
						 M452.4,362.9c-1,0-1.9-0.5-2.3-1.4c-0.6-1.2,0-2.7,1.2-3.3c5.7-2.6,10.9-5.6,15.9-9c3.8-2.6,7.2-5,10.3-7.3
						c1.1-0.8,2.7-0.6,3.5,0.5c0.8,1.1,0.6,2.7-0.5,3.5c-3.2,2.3-6.6,4.7-10.4,7.3c-5.2,3.6-10.7,6.7-16.6,9.5
						C453.1,362.8,452.7,362.9,452.4,362.9z M495.6,333.6c-0.7,0-1.4-0.3-1.9-0.8c-0.9-1-0.8-2.6,0.2-3.5
						c9.8-8.4,14.2-14.7,16.8-23.9c0.4-1.3,1.8-2.1,3.1-1.7c1.3,0.4,2.1,1.7,1.8,3c-2.8,10.2-7.8,17.3-18.4,26.3
						C496.7,333.4,496.2,333.6,495.6,333.6z M516,288.1c-1.4,0-2.5-1.1-2.5-2.4c-0.2-9.9-2.8-19.8-7.7-28.6c-0.7-1.2-0.2-2.7,1-3.4
						c1.2-0.6,2.8-0.2,3.4,1c5.3,9.5,8.1,20.2,8.3,30.9C518.6,286.9,517.5,288,516,288.1C516.1,288.1,516,288.1,516,288.1z"/>
				</g>
			</g>
		</g>
	</g>
</g>
</svg>
