<?xml version="1.0" encoding="utf-8"?>
<!-- Generator: Adobe Illustrator 22.1.0, SVG Export Plug-In . SVG Version: 6.00 Build 0)  -->
<svg version="1.1" id="Layer_1" xmlns="http://www.w3.org/2000/svg" xmlns:xlink="http://www.w3.org/1999/xlink" x="0px" y="0px"
	 viewBox="0 0 700 700" style="enable-background:new 0 0 700 700;" xml:space="preserve">
<style type="text/css">
	.st0{fill:#0B5888;}
	.st1{fill:#ED2224;}
	.st2{fill:#FFFFFF;}
	.st3{fill:#EE2F24;}
</style>
<g>
	<circle class="st0" cx="350.9" cy="342.8" r="296.6"/>
	<path class="st1" d="M350.9,645.3c-80.8,0-156.8-31.5-214-88.6s-88.6-133.1-88.6-214c0-80.8,31.5-156.8,88.6-214
		s133.1-88.6,214-88.6c80.8,0,156.8,31.5,214,88.6s88.6,133.1,88.6,214c0,80.8-31.5,156.8-88.6,214S431.8,645.3,350.9,645.3z
		 M350.9,52.2c-160.2,0-290.6,130.4-290.6,290.6s130.4,290.6,290.6,290.6S641.5,503,641.5,342.8S511.2,52.2,350.9,52.2z"/>
</g>
<g>
	<g>
		<g>
			<g>
				<path class="st1" d="M296.3,372.4l-0.5-1c-0.5-1-1-1.9-1.5-2.8l-1.3-2.3l5.2,3.3L296.3,372.4z"/>
			</g>
		</g>
	</g>
	<g>
		<g>
			<g>
				<path class="st2" d="M407.3,428.9c1.2,19.7,9.3,33.9,11.9,45.3c3.7,6.8,10.4,18.6,14.3,23.3c5,5.9,12,11.5,13.7,12.8
					c1.8,0.2,9.2,0.7,18.6-3.2c6.6-2.7,16.3-8.6,25.6-21.3c-2.6-1-7-3-11.9-7.3c-7-6.2-16.5-18.4-21.6-41.6c-5.1-23.3,2-42,8.9-53.6
					c5.5-9.2,11.5-15.4,14.5-18.1l-35.5-22.4c-2.7,1.9-10.4,7.5-15.9,14.4c-5.9,7.4-11.2,17.6-12.5,20.2c0,0-7.2,13.1-9.8,18.6
					C405,401.5,407.3,428.9,407.3,428.9z"/>
				<path class="st1" d="M449.8,512.9c-1.2,0-2.2-0.1-2.9-0.1l-0.7-0.1l-0.6-0.4c-2-1.6-9-7.1-14.1-13.2c-3.8-4.6-10-15.4-14.6-23.7
					l-0.2-0.7c-0.8-3.7-2.3-7.8-3.9-12.2c-3.2-8.9-7.3-20.1-8.1-33.5c-0.4-4.8-2.1-28.4,0.6-34.2c2.6-5.5,9.6-18.2,9.9-18.8
					c1.4-2.9,6.8-13.1,12.7-20.6c5.6-7.1,13.3-12.8,16.4-14.9l1.4-1l39.7,25.1l-2.4,2.3c-3,2.8-8.8,8.7-14,17.5
					c-6.7,11.2-13.6,29.3-8.6,51.7c5,22.5,14.1,34.3,20.8,40.2c4.5,3.9,8.5,5.9,11.1,6.8l3.2,1.2l-2,2.7
					c-9.7,13.1-19.9,19.3-26.7,22.1C459.6,512.3,453.6,512.9,449.8,512.9z M448.1,507.7c2.6,0.2,8.9,0.1,16.7-3.1
					c5.8-2.4,14.2-7.4,22.6-17.9c-2.7-1.3-6-3.3-9.5-6.4c-7.3-6.4-17.1-19.1-22.4-43c-5.3-24.1,2.1-43.4,9.2-55.4
					c4.4-7.4,9.2-12.9,12.6-16.3l-31.3-19.8c-3.2,2.3-9.4,7.2-14,12.9c-5.8,7.3-11.2,17.7-12.2,19.8c-0.1,0.2-7.2,13.2-9.8,18.6
					c-1.6,3.4-1.1,20.5-0.2,31.6l0,0.1c0.8,12.7,4.5,23,7.8,32.1c1.6,4.4,3.1,8.5,4,12.4c3.7,6.7,10.2,18.2,13.8,22.6
					C439.8,501,445.7,505.8,448.1,507.7z"/>
			</g>
		</g>
	</g>
	<g>
		<g>
			<g>
				<path class="st1" d="M437.5,514.2C437.5,514.3,437.5,514.3,437.5,514.2C437.5,514.2,437.5,514.2,437.5,514.2L437.5,514.2z
					 M438.9,512.5L438.9,512.5C438.9,512.6,438.9,512.6,438.9,512.5C438.9,512.6,438.9,512.6,438.9,512.5z"/>
			</g>
		</g>
	</g>
	<g>
		<g>
			<g>
				<path class="st2" d="M449.1,509.9c5.5,4.1,18.9,11.2,44.9,10.8c39.5-0.6,65.2-40,72.2-64.7c7.8-27.8-2.9-73.8-38.5-107.9
					c-5.1-4.9-11.3-10-18.3-15c-4.8,1.8-9.8,3.5-14.9,4.9c-13.9,4-28.9,6.8-45.9,8.6c15.7,8.7,33.9,19.3,40.4,26.2
					c7.8,8.3,17.3,20,21.8,35.8c5.1,17.8,2.5,37.6-7.7,58.6c-12,24.8-27.3,35-38.1,39.2C458.6,509.1,453,509.8,449.1,509.9z"/>
				<path class="st1" d="M491.9,523.4c-25.2,0-38.6-7.1-44.4-11.4l-5.9-4.4l7.3-0.2c3.4-0.1,8.8-0.8,15-3.2
					c10.4-4,25.1-13.8,36.8-37.9c9.9-20.5,12.4-39.6,7.6-56.8c-4.3-15.3-13.6-26.6-21.2-34.8c-6.4-6.8-25.8-18-39.8-25.7l-7.1-3.9
					l8-0.8c16.8-1.8,31.7-4.6,45.4-8.5c5-1.5,10-3.1,14.7-4.9l1.3-0.5l1.1,0.8c7.1,5.1,13.4,10.3,18.6,15.2
					c36.4,34.9,47.3,82,39.2,110.5c-7.2,25.4-33.8,65.9-74.6,66.5C493.3,523.3,492.6,523.4,491.9,523.4z M456.8,511.6
					c7.2,3.5,18.8,6.9,37.1,6.6c38.1-0.6,63-38.8,69.8-62.8c7.6-27-2.9-71.9-37.8-105.4c-4.8-4.6-10.5-9.3-17-14
					c-4.4,1.6-9.1,3.2-13.8,4.5c-11.9,3.4-24.5,6-38.5,7.8c13.8,7.8,28.3,16.6,34.1,22.9c8,8.6,17.8,20.5,22.4,36.9
					c5.2,18.5,2.6,38.8-7.9,60.4c-12.3,25.5-28.3,36.1-39.5,40.4C462.9,510.1,459.8,511,456.8,511.6z"/>
			</g>
		</g>
	</g>
	<g>
		<g>
			<g>
				<path class="st2" d="M323,364.2c20.1-0.1,40.5-0.1,58.3-0.7c3,2.7,5.9,5.4,8.6,8.2c19.4,20.1,27,45.3,30.1,63
					c3.6,20.7,2.5,42.4-2.9,56.6c-11.3,29.9-32.4,45.1-62.6,45.1c-0.1,0-0.3,0-0.4,0c-28.9-0.1-45.3-15.2-51.6-22.6
					c4.8,2,12.7,4.1,21.9,2.1c12.6-2.6,23.8-11.9,33.2-27.5c11.7-19.4,15.2-38.2,10.2-56c-4.1-14.6-12.7-26-21.5-36.1
					c-6.4-7.5-25.2-19.1-47.2-32C307,364.2,315,364.2,323,364.2z"/>
			</g>
			<g>
				<path class="st1" d="M354.4,537l-0.4,0c-29.6-0.1-46.3-16-52.1-22.8l-1.7-2l2.5,1c4.8,2,12.5,4,21.5,2.1
					c12.4-2.6,23.5-11.7,32.8-27.2c11.6-19.2,15.1-37.9,10.1-55.6c-4-14.5-12.6-25.8-21.3-35.9c-6.6-7.6-26.5-19.8-47.1-31.9l-2-1.2
					l2.3,0c7.9-0.1,15.9-0.1,23.9-0.1l0,0c19.9-0.1,40.5-0.1,58.3-0.7l0.3,0l0.2,0.2c3.2,2.8,6.1,5.6,8.7,8.2
					c19.5,20.2,27.2,45.6,30.2,63.3c3.6,20.8,2.5,42.6-2.9,56.9C406.3,521.7,385,537,354.4,537z M304.7,515.3
					c6.9,7.3,22.9,20.3,49.4,20.4l0.4,0c29.9,0,50.8-15,62-44.7c5.3-14.1,6.4-35.6,2.9-56.3c-3-17.6-10.7-42.7-29.9-62.7
					c-2.5-2.6-5.3-5.3-8.4-8c-17.7,0.6-38.2,0.6-58,0.7l0,0c-7.2,0-14.4,0-21.6,0.1c19.9,11.7,38.9,23.5,45.4,31
					c8.8,10.2,17.5,21.7,21.6,36.4c5,18,1.5,37-10.3,56.5c-9.5,15.8-20.9,25.1-33.7,27.8C316.6,518.2,309.7,517,304.7,515.3z"/>
			</g>
		</g>
	</g>
	<g>
		<g>
			<g>
				<g>
					<path class="st3" d="M286.2,492c-0.6-1.4-1.2-2.8-1.6-4.3c-4.9-14.9-14.1-42.7,0-81.5c5-13.8,11.2-24.9,17-33.3
						c0.5-0.8,1.1-1.6,1.6-2.3c0.3-0.4,0.6-0.8,0.9-1.2c0.7,0.4,1.4,0.8,2.1,1.3c-6.3,8.7-13.5,20.7-19.2,36.3
						c-13.8,38.1-4.8,65.4,0,80c2.7,8.2,8.1,16.2,12.8,22.2c-0.4-0.2-0.9-0.1-1.3,0.2c-0.4,0.4-0.5,1-0.2,1.5c0.1,0.1,0.6,1,1.8,2.5
						c-4-4.7-9-11.4-12.6-18.7C287,493.8,286.6,492.9,286.2,492z"/>
				</g>
				<g>
					<path class="st1" d="M299.5,513.9c-3.7-4.4-8.9-11.3-12.6-18.9c-0.4-0.9-0.9-1.8-1.3-2.7h0c-0.7-1.5-1.2-2.9-1.7-4.3
						c-5-15-14.2-42.9,0-81.9c4.4-12.1,10.1-23.4,17-33.5c0.5-0.8,1.1-1.6,1.6-2.3l1.2-1.7l3.3,1.9l-0.4,0.6
						c-7.8,10.7-14.2,22.9-19.1,36.2c-13.8,37.9-4.8,65,0,79.6c2.8,8.4,8.4,16.6,12.7,22l1.4,1.8l-2.2-0.8c-0.2-0.1-0.4,0-0.6,0.1
						c-0.2,0.2-0.2,0.5-0.1,0.7c0.1,0.2,0.7,1.1,1.7,2.5L299.5,513.9z M286.8,491.8c0.4,0.9,0.8,1.8,1.2,2.7
						c2.8,5.7,6.4,10.9,9.6,15c0.1-0.2,0.2-0.3,0.4-0.5c0.1-0.1,0.3-0.2,0.5-0.3c-4.2-5.5-9.5-13.4-12.2-21.4
						c-4.9-14.7-13.9-42.2,0-80.4c4.8-13.2,11.1-25.3,18.8-35.9l-1-0.6l-0.5,0.7c-0.5,0.7-1.1,1.5-1.6,2.3
						c-6.8,10-12.5,21.2-16.9,33.2c-14,38.6-4.9,66.3,0,81.1C285.6,488.9,286.1,490.3,286.8,491.8L286.8,491.8z"/>
				</g>
			</g>
			<g>
				<g>
					<path class="st3" d="M286.9,494.9c-0.4-0.9-0.9-1.8-1.3-2.7l0,0c-0.7-1.5-1.2-2.9-1.7-4.3c-4.9-15-14.2-42.9,0-81.9
						c4.4-12.1,10.1-23.3,17-33.5c0.5-0.8,1.1-1.6,1.6-2.3l1.2-1.6l3.1,1.8l-0.3,0.5c-7.8,10.7-14.3,22.9-19.1,36.2
						c-13.8,37.9-4.8,65.1,0,79.7c2.8,8.4,8.4,16.6,12.7,22l1.2,1.5l-1.8-0.7c-0.2-0.1-0.5,0-0.7,0.1c-0.2,0.2-0.3,0.5-0.1,0.8
						c0,0,0.6,1,1.7,2.5l-0.9,0.6C295.8,509.4,290.6,502.5,286.9,494.9z M286.4,487.2c-4.9-14.7-13.9-42.1,0-80.4
						c4.8-13.2,11.2-25.3,18.9-36l-1.2-0.7l-0.6,0.8c-0.5,0.7-1.1,1.5-1.6,2.3c-6.9,10.1-12.5,21.2-16.9,33.2
						c-14.1,38.6-4.9,66.3,0,81.2c0.4,1.4,1,2.7,1.6,4.2v0c0.4,0.9,0.8,1.8,1.2,2.7c2.8,5.7,6.5,11,9.7,15.2
						c0.1-0.2,0.3-0.4,0.5-0.6c0.2-0.1,0.4-0.3,0.6-0.3C294.4,503.2,289.1,495.3,286.4,487.2z"/>
				</g>
				<g>
					<path class="st1" d="M299.4,514.7l-0.4-0.5c-3.7-4.4-8.9-11.3-12.7-19l0,0c-0.4-0.9-0.9-1.8-1.3-2.8c-0.7-1.5-1.2-3-1.7-4.4
						c-5-15.1-14.2-43.1,0-82.3c4.4-12.1,10.2-23.4,17.1-33.6c0.5-0.8,1.1-1.6,1.6-2.3l1.5-2.1l4.2,2.5l-0.7,1
						c-7.8,10.7-14.2,22.8-19,36.1c-13.7,37.7-4.8,64.7,0,79.3c2.7,8.3,8.4,16.5,12.6,21.8l2.6,3.2l-4-1.4c0,0,0.5,1,1.7,2.4
						l0.4,0.5L299.4,514.7z M297.9,510.7c0.1,0.1,0.2,0.3,0.3,0.4c0-0.1-0.1-0.1-0.1-0.1c-0.1-0.1-0.1-0.3-0.2-0.4L297.9,510.7z
						 M304.3,371l-0.2,0.3c-0.5,0.7-1.1,1.5-1.6,2.3c-6.8,10-12.5,21.1-16.8,33.1c-14,38.4-4.9,66,0,80.8c0.4,1.3,1,2.7,1.6,4.2
						c0.4,0.9,0.8,1.8,1.2,2.7c2.3,4.6,5.3,9.4,9.1,14.4c0,0,0,0,0,0c0,0,0,0,0,0c-4.1-5.3-9.3-13.1-11.9-21.1l0,0
						c-4.9-14.8-14-42.3,0-80.8C290.5,393.6,296.7,381.6,304.3,371L304.3,371z"/>
				</g>
			</g>
		</g>
		<g>
			<g>
				<g>
					<g>
						<path class="st2" d="M343.3,396c-11.2,21.1-15.5,38-13.1,51.4c5.4,30.3,13.3,44.1,18.5,50.2c-7.2,8.7-15.3,14-24,15.9
							c-13.8,2.9-24.5-4.2-24.7-4.2c-0.1-0.1-0.2-0.1-0.3-0.1c-4.7-5.9-10.1-14-12.8-22.2c-4.8-14.7-13.9-42,0-80
							c5.7-15.6,12.8-27.7,19.2-36.3C322.6,380.6,336.8,389.7,343.3,396z"/>
					</g>
					<g>
						<path class="st1" d="M317.9,514.9c-10.6,0-18.1-5-18.2-5.1l-0.2-0.1l-0.2-0.2c-4.3-5.5-10.1-13.8-12.9-22.4
							c-4.9-14.7-13.9-42.2,0-80.4c4.9-13.4,11.4-25.7,19.2-36.5l0.4-0.5l0.5,0.3c20.2,12.1,31.8,20,37.4,25.5l0.3,0.3l-0.2,0.4
							c-11.2,21-15.5,37.7-13.1,51c5.3,29.6,12.9,43.5,18.3,49.9l0.3,0.4l-0.3,0.4c-7.3,8.8-15.5,14.2-24.4,16.1
							C322.4,514.7,320.1,514.9,317.9,514.9z M300.2,508.7c0.1,0,0.2,0.1,0.2,0.1c0.1,0.1,10.7,7,24.1,4.1
							c8.4-1.8,16.2-6.9,23.3-15.3c-5.5-6.7-13-20.8-18.3-50.1c-2.4-13.5,1.8-30.4,13-51.4c-7.2-6.8-23-16.7-36.3-24.6
							c-7.7,10.6-14,22.6-18.7,35.7c-13.8,37.9-4.8,65,0,79.6C290.3,495.1,295.9,503.3,300.2,508.7z"/>
					</g>
				</g>
			</g>
			<g>
				<g>
					<g>
						<path class="st3" d="M343.3,396c0.6,0.6,1.2,1.2,1.7,1.8c0,0.1,0.1,0.1,0.1,0.2c-10.5,20.1-14.7,36.5-12.5,49.1
							c5.2,29.2,12.7,42.7,17.6,48.7c-0.5,0.7-1.1,1.3-1.6,2c-5.2-6.1-13-20-18.5-50.2C327.8,434,332.1,417.1,343.3,396z"/>
					</g>
					<g>
						<path class="st1" d="M348.7,498.7l-0.5-0.6c-5.5-6.5-13.2-20.6-18.6-50.5c-2.4-13.6,1.9-30.6,13.2-51.8l0.4-0.8l0.6,0.6
							c0.7,0.6,1.2,1.2,1.7,1.8l0.3,0.3l-0.1,0.5c-10.5,19.9-14.6,36.3-12.4,48.7c5.1,28.5,12.3,42,17.4,48.4l0.3,0.4l-0.3,0.4
							c-0.5,0.7-1.1,1.4-1.6,2L348.7,498.7z M343.5,397.1c-10.9,20.6-15,37-12.7,50.2c5.1,28.7,12.4,42.6,17.8,49.3
							c0.3-0.3,0.5-0.6,0.8-0.9c-5.2-6.6-12.4-20.4-17.4-48.5c-2.2-12.6,1.9-29.1,12.4-49.1C344.1,397.8,343.8,397.4,343.5,397.1z
							 M345,397.9L345,397.9L345,397.9L345,397.9z"/>
					</g>
				</g>
				<g>
					<g>
						<path class="st3" d="M348.2,498c-5.5-6.5-13.2-20.6-18.6-50.5c-2.4-13.6,1.9-30.5,13.2-51.7l0.4-0.7l0.5,0.5
							c0.7,0.6,1.2,1.2,1.7,1.8l0.4,0.4l-0.2,0.3c-10.5,20-14.7,36.4-12.4,48.7c5.1,28.5,12.3,42.1,17.5,48.4l0.3,0.3l-0.2,0.3
							c-0.5,0.7-1.1,1.4-1.6,2l-0.4,0.5L348.2,498z M332.1,447.1c-2.2-12.5,1.9-29.1,12.4-49.1c-0.3-0.3-0.6-0.7-1-1.1
							c-10.9,20.7-15.1,37.2-12.7,50.4c5.2,28.9,12.5,42.8,17.9,49.5c0.3-0.4,0.6-0.7,0.9-1.1C344.3,489.1,337.2,475.4,332.1,447.1z
							"/>
					</g>
					<g>
						<path class="st1" d="M348.7,499.6l-1-1.1c-5.6-6.6-13.3-20.8-18.7-50.8c-2.5-13.8,1.9-30.8,13.3-52.1l0.8-1.5l1.2,1.2
							c0.7,0.7,1.3,1.3,1.8,1.9l0.7,0.7l-0.4,0.7c-10.4,19.8-14.6,36.1-12.4,48.3c5.1,28.4,12.2,41.8,17.3,48.1l0.6,0.7l-0.5,0.7
							c-0.5,0.7-1.1,1.4-1.6,2L348.7,499.6z M343.6,398.1c-10.5,20.2-14.5,36.3-12.2,49.2c5,28,12,41.8,17.2,48.5c0,0,0,0,0.1-0.1
							c-5.2-6.7-12.3-20.5-17.2-48.5l0,0C329.2,434.6,333.3,418.1,343.6,398.1C343.7,398.1,343.7,398.1,343.6,398.1z"/>
					</g>
				</g>
			</g>
			<g>
				<g>
					<g>
						<path class="st3" d="M298.4,509.4c0.4-0.3,0.9-0.4,1.3-0.2c0.1,0,0.2,0.1,0.3,0.1c0.1,0.1,10.9,7.1,24.7,4.2
							c8.7-1.8,16.7-7.2,24-15.9c0.5-0.6,1.1-1.3,1.6-2c2-2.6,3.9-5.4,5.7-8.4c27-44.9,1.6-74.8-10.8-89.3c0-0.1-0.1-0.1-0.1-0.2
							c-0.5-0.6-1-1.2-1.7-1.8c-6.5-6.3-20.8-15.5-37.3-25.4c-0.7-0.4-1.4-0.8-2.1-1.3c-0.8-0.5-1.6-0.9-2.4-1.4
							c-1.5-0.9-3.1-1.8-4.6-2.7c-0.5-0.3-1-0.6-1.5-0.9c1.6,0,3.1,0,4.7,0c21.9,12.9,40.5,24.5,46.8,32
							c8.7,10.1,17.3,21.5,21.3,36.1c4.9,17.8,1.5,36.7-10.1,56c-9.4,15.6-20.5,24.8-33,27.5c-9.2,1.9-17-0.2-21.7-2.1
							c6.3,7.4,22.6,22.5,51.2,22.6c0.1,0,0.3,0,0.4,0c30,0,50.9-15.2,62.1-45.1c5.3-14.2,6.4-35.8,2.9-56.6
							c-3-17.7-10.6-42.9-29.8-63c-2.7-2.8-5.5-5.5-8.5-8.2c1.2,0,2.3-0.1,3.5-0.1c2.4,2.2,4.7,4.5,6.9,6.7
							c6.5,6.8,11.7,14.2,15.9,21.7c0.5,1,1,1.9,1.5,2.9c7.3,14.1,11.1,28.4,13,39.7c3.2,18.9,2.6,38.6-1.4,52.9c-0.3,1-0.6,2-0.9,3
							c-0.2,0.6-0.4,1.3-0.7,1.9c-5.5,14.5-13.3,25.8-23.3,33.6c-11.1,8.7-25,13.1-41.2,13.1c-0.1,0-0.3,0-0.4,0
							c-20.5-0.1-34.7-7.6-43.1-14c-1.8-1.4-3.4-2.7-4.8-4c0,0,0,0-0.1,0c-3.1-2.9-5.3-5.5-6.7-7.3c-1.1-1.5-1.7-2.4-1.8-2.5
							C297.9,510.4,298,509.8,298.4,509.4z"/>
					</g>
					<g>
						<path class="st1" d="M355,539.4l-0.4,0c-20.7-0.1-35.1-7.7-43.5-14.1c-1.7-1.3-3.3-2.7-4.9-4.1c-3.3-3-5.5-5.7-6.8-7.4
							c-1.1-1.5-1.7-2.4-1.8-2.6c-0.4-0.7-0.3-1.7,0.4-2.3l0,0c0.5-0.5,1.3-0.6,2-0.4c0.2,0.1,0.3,0.1,0.4,0.2
							c0.1,0.1,10.7,7,24.1,4.1c8.5-1.8,16.5-7.1,23.6-15.7c0.5-0.6,1.1-1.3,1.6-2c2-2.5,3.9-5.4,5.7-8.4
							c26.8-44.7,1.5-74.3-10.7-88.6l0.4-0.6l-0.5,0.4c-0.5-0.5-1-1.1-1.6-1.7c-7.1-6.9-23.6-17.1-37.1-25.3l-4.5-2.7
							c-1.5-0.9-3.1-1.8-4.6-2.7l-3.5-2.1l7.2-0.1l0.2,0.1c20.5,12.1,40.4,24.4,47,32.1c8.7,10.2,17.4,21.7,21.4,36.4
							c5,18,1.5,37-10.2,56.5c-9.5,15.8-20.7,25.1-33.4,27.8c-7.8,1.7-14.7,0.4-19.6-1.2c6.9,7.3,22.7,20.3,48.9,20.4l0.4,0
							c29.7,0,50.4-15,61.5-44.7c5.3-14.1,6.4-35.6,2.8-56.3c-3-17.6-10.6-42.7-29.6-62.7c-2.5-2.6-5.4-5.4-8.5-8.2l-1.2-1.1
							l1.6-0.1c1.2,0,2.3-0.1,3.5-0.1l0.3,0l0.2,0.2c2.5,2.3,4.8,4.6,6.9,6.8c6.1,6.4,11.5,13.7,16,21.8c0.5,1,1.1,1.9,1.6,2.9
							c6.2,12,10.6,25.4,13.1,39.8c3.2,18.8,2.7,38.7-1.4,53.2c-0.3,1-0.6,2-0.9,3c-0.2,0.6-0.4,1.3-0.7,1.9
							c-5.5,14.6-13.4,26.1-23.5,33.9C385.5,535,371.4,539.4,355,539.4z M298.9,509.9c-0.2,0.2-0.2,0.5-0.1,0.7
							c0.1,0.2,0.7,1.1,1.7,2.5c1.3,1.7,3.5,4.3,6.6,7.2c1.6,1.5,3.2,2.8,4.8,4.1c8.2,6.3,22.3,13.7,42.6,13.8l0.4,0
							c16.1,0,29.8-4.3,40.8-12.9c9.9-7.7,17.6-18.9,23-33.4c0.2-0.6,0.4-1.2,0.6-1.8c0.3-1,0.6-1.9,0.9-2.9
							c4.1-14.3,4.6-34,1.4-52.7c-2.4-14.4-6.8-27.6-13-39.5c-0.5-1-1-1.9-1.5-2.8c-4.5-8-9.8-15.3-15.8-21.6
							c-2-2.1-4.2-4.3-6.7-6.5c-0.5,0-1.1,0-1.6,0.1c2.7,2.4,5.2,4.9,7.4,7.2c19.3,20.2,27,45.6,30,63.3c3.6,20.8,2.4,42.7-2.9,56.9
							C406.4,521.7,385.3,537,355,537l-0.4,0c-29.3-0.1-45.9-16-51.7-22.8l-1.7-2l2.5,1c4.8,2,12.4,4,21.3,2.1
							c12.3-2.6,23.3-11.7,32.5-27.2c11.5-19.2,14.9-37.9,10.1-55.6c-4-14.5-12.5-25.8-21.2-35.9c-6.5-7.6-26.2-19.7-46.5-31.8
							l-2.2,0c1.4,0.8,2.8,1.7,4.2,2.5l4.5,2.7c20.2,12.1,31.8,20,37.4,25.5c0.7,0.6,1.2,1.2,1.7,1.8l0.1,0.2
							c12.4,14.5,38.2,44.6,10.9,90c-1.8,3-3.8,5.9-5.8,8.5c-0.5,0.7-1.1,1.4-1.6,2c-7.3,8.8-15.5,14.2-24.4,16.1
							c-14.2,3-25.1-4.3-25.2-4.3C299.3,509.7,299.1,509.8,298.9,509.9L298.9,509.9z"/>
					</g>
				</g>
				<g>
					<g>
						<path class="st3" d="M355,539.3l-0.4,0c-20.7-0.1-35-7.7-43.4-14.1c-1.7-1.3-3.3-2.6-4.9-4.1c-3.2-3-5.4-5.6-6.7-7.3
							c-1.2-1.6-1.8-2.5-1.8-2.6c-0.4-0.7-0.3-1.6,0.4-2.1v0c0.5-0.4,1.2-0.6,1.9-0.3c0.2,0.1,0.3,0.1,0.4,0.2
							c0.1,0.1,10.7,7,24.2,4.1c8.6-1.8,16.5-7.1,23.7-15.7c0.5-0.6,1.1-1.3,1.6-2c2-2.5,3.9-5.4,5.7-8.4
							c26.9-44.7,1.5-74.4-10.7-88.7l-0.1-0.2c-0.5-0.5-1-1.1-1.6-1.7c-7.1-6.9-23.6-17.2-37.3-25.4l-4.4-2.6
							c-1.5-0.9-3.1-1.8-4.6-2.7l-3.2-1.9l6.8-0.1l0.1,0.1c20.5,12.1,40.4,24.4,47,32.1c8.7,10.2,17.3,21.6,21.4,36.3
							c5,18,1.5,36.9-10.2,56.4c-9.4,15.7-20.7,25-33.3,27.7c-8,1.7-15,0.4-20-1.4c6.7,7.3,22.6,20.7,49.3,20.8l0.4,0
							c29.7,0,50.4-15.1,61.6-44.8c5.3-14.1,6.4-35.7,2.8-56.3c-3-17.6-10.6-42.7-29.7-62.7c-2.5-2.6-5.4-5.4-8.5-8.2l-1-0.9l1.3,0
							c1.2,0,2.3-0.1,3.5-0.1l0.2,0l0.2,0.2c2.6,2.3,4.8,4.6,6.9,6.8c6.1,6.4,11.5,13.7,16,21.8c0.5,1,1.1,1.9,1.5,2.9
							c6.2,11.9,10.6,25.3,13.1,39.8c3.2,18.8,2.7,38.7-1.4,53.2c-0.3,1-0.6,2-0.9,3c-0.2,0.6-0.4,1.3-0.7,1.9
							c-5.5,14.6-13.4,26-23.4,33.9C385.4,534.9,371.4,539.3,355,539.3C355,539.3,355,539.3,355,539.3z M383,364
							c2.8,2.5,5.3,5,7.6,7.4c19.3,20.2,26.9,45.5,30,63.3c3.6,20.8,2.4,42.6-2.9,56.8c-11.3,30.2-32.4,45.5-62.6,45.5l-0.4,0
							c-29.3-0.1-45.8-16-51.6-22.8l-1.4-1.7l2.1,0.9c4.8,2,12.4,4,21.4,2.1c12.4-2.6,23.3-11.8,32.6-27.2
							c11.6-19.2,15-38,10.1-55.6c-4-14.5-12.5-25.8-21.2-35.9c-6.5-7.6-26.2-19.8-46.6-31.8l-2.6,0c1.5,0.9,3,1.8,4.5,2.7l4.5,2.7
							c20.2,12.1,31.8,20,37.4,25.5c0.7,0.6,1.2,1.2,1.7,1.8l0.1,0.2c12.4,14.4,38.1,44.5,10.8,89.9c-1.8,3.1-3.8,5.9-5.8,8.5
							c-0.5,0.7-1.1,1.4-1.6,2c-7.3,8.8-15.5,14.2-24.3,16.1c-14.1,3-25-4.2-25.1-4.3c0,0-0.1-0.1-0.2-0.1c-0.2-0.1-0.5,0-0.7,0.1
							c-0.2,0.2-0.3,0.5-0.1,0.8c0,0,0.6,1,1.7,2.5c1.3,1.7,3.5,4.3,6.7,7.3c1.5,1.4,3.1,2.8,4.8,4c8.3,6.3,22.4,13.7,42.7,13.8
							l0.4,0c0,0,0,0,0,0c16.1,0,29.9-4.4,40.9-12.9c9.9-7.7,17.7-19,23.1-33.4c0.2-0.6,0.4-1.2,0.6-1.8c0.3-1,0.6-1.9,0.9-3
							c4.1-14.3,4.6-34.1,1.4-52.7c-2.5-14.4-6.8-27.7-13-39.5c-0.5-1-1-1.9-1.5-2.8c-4.5-8-9.8-15.3-15.8-21.6
							c-2-2.1-4.2-4.3-6.7-6.5C384.3,363.9,383.7,364,383,364z"/>
					</g>
					<g>
						<path class="st1" d="M355,540l-0.4,0c-20.9-0.1-35.3-7.8-43.8-14.2c-1.7-1.3-3.4-2.7-5-4.2c-3.2-3-5.5-5.7-6.8-7.4
							c-1.2-1.6-1.8-2.6-1.9-2.6c-0.6-1-0.4-2.2,0.5-2.9c0.7-0.6,1.7-0.8,2.5-0.5c0.2,0.1,0.4,0.2,0.6,0.3c0.1,0.1,10.5,6.9,23.7,4
							c8.4-1.8,16.2-7,23.3-15.5c0.5-0.6,1-1.3,1.6-2c1.9-2.5,3.8-5.3,5.6-8.3c26.7-44.4,1.4-73.8-10.7-88l-0.1-0.2
							c-0.4-0.5-1-1.1-1.6-1.7c-7.1-6.9-23.6-17.1-37.1-25.3l-14.2-8.4l9.3-0.1l0.3,0.2c20.5,12.1,40.5,24.5,47.1,32.3
							c8.8,10.2,17.4,21.8,21.5,36.6c5,18.1,1.6,37.3-10.2,56.9c-9.5,15.9-20.9,25.3-33.8,28c-7.1,1.5-13.3,0.6-17.9-0.6
							c7.7,7.7,22.9,18.7,47.1,18.8l0.4,0c29.4,0,49.9-14.9,60.9-44.3c5.2-14,6.3-35.4,2.8-56c-3-17.5-10.5-42.5-29.5-62.4
							c-2.5-2.6-5.4-5.4-8.5-8.1l-2.2-1.9l3-0.1c1.2,0,2.3-0.1,3.5-0.1l0.5,0l0.4,0.3c2.6,2.4,4.8,4.6,7,6.8
							c6.1,6.4,11.5,13.8,16.1,21.9c0.5,1,1.1,1.9,1.6,2.9c6.2,12,10.6,25.5,13.1,40c3.2,18.9,2.7,38.9-1.4,53.4
							c-0.3,1-0.6,2.1-0.9,3c-0.2,0.6-0.4,1.3-0.7,1.9c-5.5,14.7-13.5,26.2-23.6,34.2C385.7,535.5,371.6,540,355,540z M300.9,512.6
							c0,0,0.1,0.1,0.1,0.1c1.3,1.7,3.4,4.3,6.6,7.2c1.5,1.4,3.1,2.7,4.7,4c8.2,6.2,22.1,13.6,42.3,13.7l0.4,0
							c11.8,0,22.3-2.4,31.4-7c-9,4.6-19.5,7-31.4,7l-0.4,0c-29.6-0.1-46.3-16.2-52.1-23L300.9,512.6z M390,528.6
							C390,528.6,390,528.6,390,528.6C390,528.6,390,528.6,390,528.6z M384.6,364.6c2.3,2.2,4.5,4.3,6.5,6.3
							c19.4,20.3,27.1,45.8,30.1,63.6c3.6,20.9,2.4,42.8-2.9,57.2c-6.4,17-15.8,29.3-28.3,36.9c1.9-1.1,3.7-2.4,5.4-3.8
							c9.8-7.7,17.5-18.8,22.9-33.1c0.2-0.6,0.4-1.2,0.6-1.8c0.3-0.9,0.6-1.9,0.9-2.9c4-14.3,4.6-33.9,1.4-52.4
							c-2.4-14.3-6.8-27.5-12.9-39.3c-0.5-0.9-1-1.9-1.5-2.8c-4.4-8-9.7-15.2-15.7-21.5C389.2,368.8,387.1,366.8,384.6,364.6
							L384.6,364.6z M299.7,511l4.2,1.8c4.7,2,12.2,3.9,21,2c12.2-2.6,23-11.6,32.2-26.9c10.5-17.6,14.2-34.7,11-50.9
							c2.7,14,0.9,31-11.1,50.9c-1.8,3.1-3.8,5.9-5.8,8.5c-0.5,0.7-1.1,1.4-1.6,2c-7.4,8.9-15.7,14.4-24.7,16.3
							c-14.4,3-25.5-4.3-25.6-4.4C299.3,510.3,299.4,510.6,299.7,511z M299.7,365.5c0.8,0.5,1.7,1,2.5,1.5l4.5,2.7
							c20.3,12.2,31.8,20.1,37.5,25.6c0.7,0.7,1.3,1.3,1.8,1.9l0.1,0.2c1.4,1.6,3,3.5,4.6,5.5c-1.5-1.9-3.1-3.8-4.7-5.7
							C339.6,389.5,320,377.4,299.7,365.5L299.7,365.5z"/>
					</g>
				</g>
			</g>
		</g>
	</g>
	<g>
		<g>
			<g>
				<g>
					<path class="st2" d="M276.8,316.6c-9-4.2-16.1-7.6-20.2-10c-3.6-2.1-9-5.4-14.8-9.7c0.9-1.1,1.9-2.2,2.8-3.5
						c6.5-8.9,13-24.7,7.6-48.9c-5.8-25.6-16.4-35.9-24.3-40c-2.6-1.4-5.1-2.2-7.3-2.6c6.1-7,14.3-13.2,22.5-15.6
						c16.5-4.8,33.8,3.3,38.2,5.2c-6.3,11.5-8.8,24.6-6.4,40.9c4.3,28.9,10.6,48,20.5,61.3c-3.8,11.8-10.3,20-14.8,24.7
						C279.3,317.8,278.1,317.2,276.8,316.6z"/>
				</g>
				<g>
					<path class="st1" d="M280.8,319.2l-4.2-2c-9-4.2-16.1-7.6-20.3-10c-3.5-2-8.9-5.3-14.9-9.7l-0.6-0.4l0.5-0.6
						c1-1.1,1.9-2.3,2.8-3.5c6.4-8.8,12.9-24.4,7.5-48.4c-5.7-25.4-16.2-35.5-23.9-39.6c-2.3-1.2-4.7-2-7.1-2.5l-1.2-0.2l0.8-0.9
						c6.9-7.8,15.2-13.6,22.8-15.8c16.2-4.7,32.7,2.6,38.2,5l1.2,0.5l-0.4,0.6c-6.5,11.9-8.6,25.1-6.3,40.5
						c4.4,29.1,10.7,47.9,20.4,61l0.2,0.3l-0.1,0.3c-3.8,11.9-10.2,20.1-15,24.9L280.8,319.2z M242.8,296.8
						c5.7,4.2,10.8,7.3,14.2,9.2c4.2,2.4,11.2,5.7,20.2,10l3.3,1.6c4.6-4.7,10.6-12.6,14.2-23.7c-9.7-13.3-16-32.2-20.4-61.3
						c-2.3-15.4-0.3-28.7,6.1-40.7c-5.5-2.4-21.5-9.4-37-4.9c-7.1,2.1-14.8,7.3-21.4,14.5c2.2,0.5,4.3,1.3,6.3,2.4
						c8,4.2,18.8,14.6,24.6,40.5c5.5,24.5-1.2,40.4-7.7,49.4C244.4,294.8,243.6,295.8,242.8,296.8z"/>
				</g>
			</g>
		</g>
		<g>
			<g>
				<g>
					<path class="st3" d="M252.2,243.6c5.4,23.8-1.1,39.4-7.6,48.2c-0.9,1.3-1.9,2.4-2.8,3.5c-0.7-0.5-1.4-1-2.1-1.6
						c0.9-1,1.8-2.1,2.7-3.3c6.2-8.4,12.4-23.3,7.2-46.2c-5.4-23.6-14.9-33.3-22-37.3c-3.4-1.9-6.5-2.7-8.8-3
						c0.6-0.8,1.3-1.5,1.9-2.3c2.2,0.4,4.7,1.2,7.3,2.5C235.8,208.2,246.4,218.4,252.2,243.6z"/>
				</g>
				<g>
					<path class="st1" d="M241.9,296.2l-0.5-0.4c-0.7-0.5-1.4-1-2.1-1.6l-0.6-0.4l0.5-0.5c0.9-1.1,1.8-2.2,2.6-3.3
						c6.1-8.3,12.3-23,7.1-45.7c-5.3-23.3-14.7-32.9-21.7-36.8c-2.8-1.6-5.7-2.5-8.6-2.9l-1.2-0.1l0.7-0.9c0.6-0.8,1.3-1.5,1.9-2.3
						l0.3-0.3l0.4,0.1c2.6,0.5,5.1,1.4,7.5,2.6c8,4.1,18.8,14.4,24.6,39.9c5.5,24.1-1.2,39.8-7.7,48.7c-0.9,1.2-1.8,2.4-2.8,3.5
						L241.9,296.2z M240.6,293.6c0.3,0.3,0.7,0.5,1,0.8c0.8-1,1.6-1.9,2.3-2.9c6.4-8.7,12.9-24,7.5-47.6c-5.7-25-16.1-35-23.9-39
						c-2.2-1.1-4.4-1.9-6.7-2.4c-0.3,0.3-0.6,0.7-0.9,1c2.7,0.5,5.3,1.5,7.9,2.9c7.2,4.1,16.9,13.9,22.3,37.7
						c5.3,23.2-1,38.2-7.3,46.8C242.2,291.7,241.4,292.7,240.6,293.6z"/>
				</g>
			</g>
			<g>
				<g>
					<path class="st3" d="M241.4,295.7c-0.7-0.5-1.4-1-2.1-1.6l-0.5-0.4l0.4-0.5c0.9-1.1,1.8-2.2,2.7-3.3c6.1-8.3,12.3-23,7.1-45.8
						c-5.3-23.4-14.7-33-21.7-36.9c-2.8-1.6-5.7-2.6-8.6-2.9l-1-0.1l0.6-0.8c0.6-0.8,1.3-1.5,1.9-2.3l0.2-0.2l0.3,0.1
						c2.5,0.5,5.1,1.4,7.4,2.6c8,4.1,18.7,14.3,24.5,39.8c5.5,24.1-1.2,39.7-7.7,48.6c-0.9,1.2-1.8,2.4-2.8,3.5l-0.4,0.4
						L241.4,295.7z M251.6,243.7c-5.7-25.1-16.2-35.1-24-39.1c-2.2-1.1-4.5-1.9-6.8-2.4c-0.4,0.4-0.7,0.8-1,1.2
						c2.7,0.5,5.4,1.4,8,2.9c7.2,4,16.8,13.9,22.3,37.6c5.3,23.2-1,38.2-7.3,46.7c-0.7,1-1.5,2-2.3,2.9c0.4,0.3,0.8,0.6,1.2,0.9
						c0.8-1,1.7-2,2.4-3C250.5,282.8,257,267.4,251.6,243.7L251.6,243.7L251.6,243.7z"/>
				</g>
				<g>
					<path class="st1" d="M242,298.1l-0.9-0.7c-0.7-0.5-1.4-1.1-2.1-1.6l-1.1-0.8l0.9-1c0.9-1.1,1.8-2.1,2.6-3.3
						c6-8.3,12.1-23,7-45.8c-5.3-23.4-14.5-33-21.4-36.9c-2.7-1.5-5.5-2.5-8.3-2.9l-2.2-0.3l1.4-1.7c0.6-0.8,1.3-1.6,2-2.3l0.5-0.5
						l0.7,0.1c2.6,0.5,5.2,1.4,7.6,2.7c8.1,4.2,19,14.7,24.9,40.7c5.5,24.6-1.2,40.6-7.8,49.7c-0.9,1.2-1.9,2.4-2.9,3.6L242,298.1z"
						/>
				</g>
			</g>
		</g>
		<g>
			<g>
				<g>
					<path class="st2" d="M372.8,296.2c-4.3-2.6-17.2,2.8-10.3-17c3.7-9.8,9.5-29.2,6.7-48.5c-3.1-20.8-10.4-30.9-30.5-39.4
						c4.1-5.7,9.2-9.9,15.1-12.8c16.3-7.9,34.1-2.4,36.3-1.7c5.6,4.1,11.3,9.6,14.9,15.5c3.4,5.4,5.1,9.5,6,12.3
						c-2.7,6.2-5.4,13.7-7.9,22.9c-9.7,36.6,18.9,74.9,21.5,83.5c-7.7-3.1-35.5-6.6-38.9-9C383.4,300.5,376.4,298.3,372.8,296.2z"/>
					<path class="st1" d="M428.6,315.5l-4.9-2c-3.6-1.4-12.4-3.1-20.3-4.6c-11.8-2.2-17.1-3.3-19.1-4.7c-0.9-0.6-3.2-1.6-5.5-2.5
						c-2.6-1.1-5.4-2.2-7.3-3.3c-0.6-0.3-2-0.5-3.2-0.6c-2.9-0.3-6.8-0.7-9-4c-2-3.2-1.8-8.1,0.8-15.4c3.7-9.7,9.3-28.5,6.6-47.3
						c-3-20.3-10-29.4-29-37.4l-3-1.3l1.9-2.6c4.4-6,9.8-10.6,16-13.6c17.2-8.4,36.1-2.5,38.2-1.8l0.7,0.4
						c6.5,4.8,12,10.5,15.6,16.2c3.6,5.7,5.4,10.1,6.2,12.9l0.3,0.9l-0.4,0.9c-2.9,6.6-5.5,14.2-7.7,22.5
						c-7.4,27.9,8.3,57,16.8,72.5c2.4,4.4,4.1,7.5,4.7,9.6L428.6,315.5z M342.8,190.4c18.4,8.5,25.9,18.9,29,40
						c2.9,19.9-3,39.7-6.9,49.8c-2.5,7.3-1.9,10-1.3,10.9c0.7,1.2,2.5,1.4,5.2,1.7c1.9,0.2,3.8,0.4,5.3,1.3l0,0c1.6,1,4.3,2,6.6,3
						c2.7,1.1,5.1,2,6.5,3c1.5,0.9,10.5,2.6,17.2,3.9c5.6,1,11.2,2.1,15.6,3.2c-0.6-1.2-1.3-2.5-2.1-3.9
						c-8.8-16.2-25.2-46.4-17.2-76.3c2.2-8.2,4.8-15.8,7.6-22.4c-0.9-2.5-2.5-6.2-5.4-10.8c-3.1-5-8.2-10.3-13.9-14.5
						c-3.2-1-19.3-5.4-34,1.7C350.4,183.1,346.3,186.3,342.8,190.4z"/>
				</g>
			</g>
		</g>
		<g>
			<g>
				<path class="st2" d="M285.1,321.4c-36.2-10.1-78.7-40.3-80.8-78.1c-1.8-33.1,21.8-54.8,53.9-56.9c7.7-0.5,15,0.6,21.7,3.1
					c-13.5-12-29.9-19.5-48.5-19.3c-48.7,0.6-84.1,34.4-83.2,83.4c0.6,31.5,29.8,67.2,63.2,84.1c7.9-3.4,17.4-8.1,31.5-11.1
					C259.4,323.1,273.5,322.1,285.1,321.4z"/>
				<path class="st1" d="M211.5,340.2c-0.4,0-0.8-0.1-1.1-0.3c-36.3-18.3-64.1-55.4-64.6-86.3c-0.4-23.9,7.4-44.9,22.6-60.5
					c15.6-16.1,38-25.1,63.1-25.5c17.9-0.3,35.3,6.6,50.2,19.9c0.9,0.8,1.1,2.2,0.5,3.2c-0.6,1.1-1.9,1.5-3.1,1.1
					c-6.7-2.4-13.6-3.4-20.7-2.9c-32.4,2.1-53.1,23.9-51.5,54.2c1.9,35.5,42.1,65.6,78.9,75.8c1.2,0.3,2,1.5,1.9,2.7
					c-0.1,1.2-1.1,2.2-2.4,2.3c-12.5,0.8-26,1.8-41.8,5.2c-11.8,2.5-20.6,6.4-27.6,9.4c-1.2,0.5-2.3,1-3.4,1.5
					C212.2,340.2,211.9,340.2,211.5,340.2z M232.3,172.7c-0.3,0-0.5,0-0.8,0c-23.7,0.3-44.9,8.8-59.5,23.9
					c-14.2,14.7-21.5,34.4-21.1,56.9c0.5,28.9,26.6,63.7,60.8,81.3c0.7-0.3,1.5-0.7,2.3-1c7.2-3.2,16.2-7.1,28.6-9.7
					c10.9-2.3,20.7-3.6,29.8-4.4c-34.7-13.4-68.6-42.5-70.4-76.4c-1.8-32.8,21.4-57.3,56.3-59.6c3.6-0.2,7.2-0.1,10.8,0.3
					C257.5,176.6,245,172.7,232.3,172.7z"/>
			</g>
		</g>
		<g>
			<g>
				<g>
					<path class="st2" d="M426.9,311.6c-38.9-7.6-87.3-33.4-98.4-71.9c-9.7-33.7,8.8-57.7,40.7-62.2c7.6-1.1,16.3-0.2,23.7,1.8
						c-16.5-11.2-36-18-54.6-16.4c-49,4.2-76.5,41.4-63.9,91.5c8.1,32.2,43.4,64,81.2,78.8c7.2-4,22.5-0.5,35.9-4.7
						C407.3,323.7,415.4,313.1,426.9,311.6z"/>
				</g>
				<g>
					<path class="st1" d="M355.8,336l-1.1-0.4c-40.7-15.9-74.8-49.1-82.7-80.6c-6.3-24.8-3-47.9,9.2-65.1
						c12.1-16.9,32.3-27.5,56.9-29.6c18.1-1.6,38.8,3.5,56.3,16.8c3.9,2.9,14.1,14.3,14.1,14.3s-10-8.1-16.3-10.8
						c-7.3-3.2-15.1-2.5-23-1.3c-15.5,2.3-27.4,9.9-34.3,20.5c-6.8,10.5-8.1,24-3.8,39c10.7,37.3,57.5,62.5,96.4,70.1l15,2.9
						l-15.1,2.1c-5.4,0.7-10.1,3.7-15.5,7.2c-5.4,3.4-11.5,7.3-19.5,9.7c-7,2.2-14.4,2.3-20.9,2.5c-5.9,0.1-11.5,0.3-14.5,2
						L355.8,336z M343.8,165.2c-1.8,0-3.6,0.1-5.3,0.2c-23.1,2-42,11.8-53.2,27.5c-11.5,16.2-14.4,37.2-8.4,60.9
						c7.5,29.7,39.8,61.1,78.6,76.7c4.1-1.8,9.5-1.9,15.8-2.1c6.2-0.1,13.2-0.3,19.5-2.2c7.3-2.3,14.4-6.4,20.7-6.9
						c4.7-0.3,20.3-5.3,5.9-7.2c-38.3-9.8-80.8-35.2-91.3-71.7c-4.7-16.5-3.2-31.4,4.4-43.2c7.7-11.9,21.3-19.8,38.3-22.2
						c3.5-0.5,7.3-0.6,11.2-0.4C368,168.4,355.5,165.2,343.8,165.2z"/>
				</g>
			</g>
		</g>
		<g>
			<g>
				<g>
					<path class="st1" d="M284.7,321.3l-4.8-2.4l1.2-1.2c4.4-4.6,10.5-12.4,14.1-23.7l0.8-2.4l1.5,2.1c0.6,0.9,1.2,1.7,1.9,2.5
						l0.4,0.5l-0.2,0.6c-2,5.7-4.7,11-8.1,15.8c-1.8,2.6-3.9,5.1-6,7.4L284.7,321.3z"/>
				</g>
			</g>
		</g>
		<g>
			<path class="st1" d="M271,321.4"/>
		</g>
	</g>
	<g>
		<g>
			<g>
				<g>
					<path class="st2" d="M287.9,432.6c-3.2-18-11.3-43.7-31.7-64.1c-2.8-2.8-5.9-5.6-9.1-8.4c-18.7,0.6-40.2,0.7-61.4,0.7
						c-6.3,0-9.4,5.5-9.5,5.6c0,0-2.6,1.4-3,1.7c21.2,12.1,30.7,18.2,37,25.3c9.2,10.3,18.3,21.9,22.6,36.7
						c5.2,18.1,1.6,37.3-10.7,57c-9.9,15.9-21.7,25.3-35,27.9c-9.8,2-18-0.2-23.1-2.2c6.7,7.6,23.9,22.9,54.3,23c0.1,0,0.3,0,0.4,0
						c31.8,0,54-15.4,65.9-45.9C290.5,475.7,291.7,453.7,287.9,432.6z"/>
					<path class="st1" d="M219,538.6h-0.4c-31.9-0.1-49.9-16.7-56.2-23.9c-0.8-0.9-0.9-2.2-0.2-3.2c0.7-1,1.9-1.3,3-0.9
						c4.9,1.9,12.6,3.9,21.6,2c12.6-2.5,23.8-11.6,33.3-26.8c12-19.1,15.5-37.6,10.5-55c-4.1-14.3-13-25.7-22.1-35.8
						c-6.2-7-16.3-13.3-36.4-24.8c-0.7-0.4-1.1-1.1-1.3-1.8c-0.1-0.8,0.1-1.5,0.6-2.1c0.3-0.3,0.6-0.6,3.1-2c2.1-3,6.1-6.2,11.3-6.3
						c21-0.1,42.7-0.1,61.3-0.7c0.6,0,1.3,0.2,1.7,0.6c3.4,2.9,6.5,5.7,9.2,8.5c20.8,20.9,29.1,47.1,32.4,65.5l0,0
						c3.8,21.5,2.6,44.1-3.2,59C274.9,522.6,251.9,538.6,219,538.6z M173.2,518.1c8.7,7,23.5,15.3,45.4,15.4h0.4
						c30.7,0,52.1-14.9,63.6-44.3c5.5-14,6.6-35.5,2.9-56.2l0,0c-3.1-17.6-11-42.8-30.9-62.8c-2.4-2.5-5.2-5-8.2-7.6
						c-18.5,0.6-39.7,0.6-60.3,0.7c-4.5,0-7,3.7-7.5,4.4l0,0c-0.1,0.1-0.1,0.2-0.2,0.3c18.5,10.7,27.7,16.6,34,23.7
						c9.4,10.5,18.7,22.4,23.2,37.7c5.4,18.9,1.7,38.7-11,59.1c-10.3,16.5-22.7,26.3-36.7,29.1C182.4,518.8,177.5,518.7,173.2,518.1
						z"/>
				</g>
			</g>
		</g>
		<g>
			<g>
				<g>
					<g>
						<path class="st1" d="M161.3,513.3c0.1,0.1,0.2,0.3,0.3,0.4c0-0.1-0.1-0.1-0.1-0.1c-0.1-0.1-0.1-0.3-0.2-0.4L161.3,513.3z"/>
					</g>
				</g>
			</g>
			<g>
				<g>
					<g>
						<g>
							<path class="st2" d="M229,376.3c-37.5,41.9-40.1,56.7-37.5,78.5c3.8,31.1,17.6,36.7,23.1,43c-7.6,8.9-13.6,12.1-23.1,16.2
								c-13.5,5.8-27.9-1.9-28-2c-0.1-0.1-0.2-0.1-0.3-0.1c-4.9-6.1-10.6-14.2-13.5-22.6c-5.1-14.9-14.6-42.7,0-81.4
								c6-15.9,13.5-28.2,20.2-37C198.2,372.4,196.4,363.3,229,376.3z"/>
							<path class="st1" d="M180.6,518.6c-10.1,0-18.3-4.5-18.4-4.5l-0.7-0.2l-0.2-0.4c-6.8-8.3-11.5-16.2-13.9-23.4
								c-5.2-15.2-14.9-43.6,0-83.2c5.2-13.8,12.1-26.5,20.5-37.6l0.8-1.1l1.4,0.1c9.7,0.5,15.7-0.2,21.1-0.9
								c9.9-1.2,17.1-2.1,38.9,6.5l3.4,1.4l-2.4,2.7c-36.6,40.9-39.4,55.4-36.8,76.5c3,24.3,12.2,32.4,18.4,37.7
								c1.5,1.3,2.9,2.6,4.1,3.9l1.5,1.7l-1.4,1.7c-7.7,8.9-13.6,12.4-24,16.9C188.5,518,184.4,518.6,180.6,518.6z M164.9,509.8
								c0,0,13.2,7.1,25.6,1.8c9.1-3.9,14.3-6.8,20.6-13.7c-0.6-0.6-1.3-1.2-2-1.8c-6.7-5.9-16.9-14.8-20.1-41
								c-2.7-22.2,0-37.3,35.7-77.7c-17.9-6.8-24-6-32.9-4.9c-5,0.6-11.2,1.4-20.6,1c-7.8,10.5-14.2,22.4-19,35.3
								c-14.3,37.9-5,65.1,0,79.7C154.4,494.8,158.8,502.2,164.9,509.8C164.9,509.8,164.9,509.8,164.9,509.8L164.9,509.8z"/>
						</g>
					</g>
				</g>
				<g>
					<g>
						<g>
							<path class="st1" d="M210.9,398.5L210.9,398.5L210.9,398.5L210.9,398.5z"/>
						</g>
					</g>
				</g>
				<g>
					<g>
						<g>
							<path class="st1" d="M252.6,364.6L252.6,364.6c2.6,2.2,4.8,4.3,6.9,6.4c2.3,2.4,4.5,4.9,6.7,7.5c-2.1-2.6-4.3-5.1-6.7-7.5
								C257.4,369,255.1,366.8,252.6,364.6z M236.4,449.5c0-0.9,0-1.8-0.1-2.8C236.3,447.6,236.4,448.6,236.4,449.5z M236.3,446.4
								c-0.1-0.9-0.1-1.7-0.2-2.6C236.2,444.7,236.2,445.6,236.3,446.4z M236,443.4c-0.1-0.8-0.2-1.6-0.3-2.3
								C235.8,441.8,235.9,442.6,236,443.4z M209.4,507.2c-0.9,0.8-1.8,1.5-2.7,2.2C207.6,508.8,208.5,508,209.4,507.2z
								 M206.2,509.8c-1.9,1.4-3.8,2.6-5.8,3.7C202.4,512.5,204.4,511.2,206.2,509.8z M200,513.8c-0.9,0.5-1.7,0.8-2.6,1.2
								C198.3,514.6,199.2,514.2,200,513.8z M196.1,515.5c-0.8,0.3-1.7,0.6-2.5,0.9C194.4,516.2,195.2,515.9,196.1,515.5z
								 M264,527.7c-0.2,0.2-0.4,0.3-0.7,0.5c1.2-0.9,2.3-1.8,3.4-2.7C265.9,526.2,265,527,264,527.7z M258.3,531.5
								c1.5-0.9,2.9-1.8,4.3-2.8C261.2,529.7,259.8,530.7,258.3,531.5z M267.6,524.8c1.4-1.2,2.7-2.5,3.9-3.8
								C270.3,522.3,269,523.5,267.6,524.8z M272.2,520.2c1.1-1.1,2.1-2.3,3.1-3.5C274.3,517.9,273.3,519.1,272.2,520.2z
								 M276.1,515.6c0.9-1.2,1.9-2.5,2.7-3.8C278,513.2,277,514.4,276.1,515.6z M279.4,510.9c1-1.5,2-3.1,2.9-4.7
								C281.4,507.9,280.4,509.4,279.4,510.9z M266.8,379.4c0.9,1.2,1.9,2.4,2.8,3.6C268.7,381.8,267.7,380.6,266.8,379.4z"/>
						</g>
						<g>
							<path class="st1" d="M258.3,531.5C258.3,531.5,258.3,531.5,258.3,531.5C258.3,531.5,258.3,531.5,258.3,531.5z"/>
						</g>
					</g>
				</g>
			</g>
		</g>
	</g>
	<g>
		<path class="st2" d="M425,314.3c15.3-4.2,28.2-10.1,38.4-17.6l0.9-0.7c17.7-13.4,27.1-31.7,27.3-54.2c0.1-17.5-3.9-31.7-12-42.4
			l-1.1-1.4c-1.3-1.6-2.7-3.1-4.2-4.6c-3.5-3.3-7.2-5.9-10.9-7.9c-7.2-4.8-20.4-7.9-25.3-8.9c3.4-2.4,8.6-5.5,15.2-7.9
			c5.6-2,12.9-3.7,21.4-3.7c8.6,0,18.5,1.8,29.2,6.7c20.2,9.3,37,32.5,43.9,60.4c7,28.3,2.6,55.3-12.1,74.1
			c-25.8,33.1-68.6,53.7-130.8,63.1c-21.2,3.2-59,3.3-95.6,3.4c-39.6,0.1-80.5,0.3-101.1,4.3c-20.7,4-37.2,16.1-47.4,25.5
			c-6.7,6.2-11.5,11.9-14.4,15.6c0.8-5.3,2.8-14.6,7.4-25.3c6.7-15.4,20.4-37,48-52.4c41.9-23.5,124-21.5,168.1-20.4
			c12.2,0.3,21,0.5,25,0c10.8-1.2,20.7-3.1,29.8-5.6l0,0L425,314.3z"/>
		<path class="st1" d="M142.4,427.5l1.5-9.7c0.9-5.9,2.9-15.2,7.6-25.9c6.8-15.8,20.9-37.9,49.1-53.7c42.5-23.8,125-21.8,169.3-20.7
			c12.2,0.3,20.9,0.5,24.6,0.1c10.5-1.2,20.4-3.1,29.4-5.5l0.5-0.1c15-4.1,27.6-9.9,37.5-17.2l0.9-0.7
			c17.3-13.1,26.1-30.6,26.3-52.2c0.1-16.9-3.7-30.6-11.5-40.8l-1.1-1.3c-1.2-1.5-2.6-3-4-4.3c-3.1-2.9-6.6-5.5-10.4-7.6
			c-7.1-4.7-20.6-7.8-24.6-8.6l-5.8-1.2l4.9-3.4c3.3-2.3,8.8-5.6,15.8-8.2c16.7-6,35.1-5,52.5,3.1c20.9,9.6,38.2,33.4,45.3,62.1
			c7.2,29,2.6,56.8-12.6,76.3c-26.2,33.6-69.5,54.6-132.4,64.1c-21.4,3.2-59.3,3.3-96,3.5c-39.4,0.1-80.2,0.3-100.6,4.2
			c-20.1,3.9-36.2,15.7-46.1,24.9c-6.5,6-11.2,11.6-14.1,15.3L142.4,427.5z M332.7,322c-43.7,0-98.3,3.1-129.7,20.6
			c-27,15.1-40.4,36.2-46.9,51.2c-2.4,5.5-4,10.5-5.2,14.9c2.3-2.5,5-5.3,8.1-8.1c10.4-9.6,27.3-22,48.6-26.2
			c20.9-4.1,61.9-4.2,101.6-4.3c36.5-0.1,74.2-0.2,95.2-3.4c61.5-9.3,103.8-29.6,129.1-62.2c14.2-18.2,18.4-44.4,11.6-71.9
			c-6.7-27.2-23-49.6-42.5-58.7c-16.3-7.5-33.2-8.4-48.6-2.9c-3.7,1.3-6.9,2.9-9.5,4.4c6.3,1.6,14.8,4.2,20.2,7.9
			c4,2.2,7.9,5,11.3,8.2c1.6,1.5,3.1,3.1,4.5,4.8l1.1,1.4c8.5,11.2,12.7,26,12.6,44c-0.2,23.2-9.7,42.1-28.3,56.2l-0.9,0.7
			c-10.4,7.7-23.6,13.7-39.1,18l-1.3,0.4l-0.1-0.1c-9,2.4-18.8,4.2-29.3,5.4c-4.1,0.5-13,0.3-25.2,0
			C359.2,322.3,346.5,322,332.7,322z"/>
	</g>
	<g>
		<g>
			<path class="st2" d="M428.4,316.4c3.5-1.1,6.8-2.2,10-3.4l0,0l0.4-0.2c13.7-5.3,24.9-12.1,33.4-20.1l0.8-0.7
				c0.7-0.7,1.5-1.5,2.2-2.2c-10.9-9.6-19.2-21.5-23-36.2c-8-30.7,8.3-59.2,38.9-66.1c7.3-1.6,20.1-5.9,27.2-4.2
				c-16.7-12.3-33.5-20-58.9-17.6c-47.6,4.6-73.3,49.4-60.5,102.6C403,285.5,413.9,302.3,428.4,316.4z"/>
		</g>
		<g>
			<path class="st1" d="M424.8,317.1c-15.7-15.3-24.2-31.4-28.3-48.5c-6.9-28.6-3.1-55.4,10.5-75.4c11.7-17.3,30.2-28,52-30.1
				c0.1,0,0.3,0,0.4,0c27.9-2.6,47.2,4.9,59.3,18.9c5.1,5.9,9.1,12.9,9.1,12.9l-8.2-10.1c-5.1-1.2-16,1.9-22.6,3.7
				c-1.9,0.5-3.8,1-5.3,1.3c-14.2,3.2-25.7,11.4-32.5,23.1c-6.7,11.6-8.4,25.8-4.7,40c3.4,13.2,10.9,24.9,22.3,34.9
				c0,0-2.1,3.2-8.6,8.4c-5.9,4.8-20.6,11.9-31.4,16.4C430.4,315.4,424.8,317.1,424.8,317.1z M460,168c-0.1,0-0.2,0-0.4,0
				c-20.5,2-37.8,12-48.7,28.1c-12.8,18.9-16.3,44.3-9.8,71.5c3.8,15.8,10.8,29.1,25.3,43.4c3.2-1,6-2,8.6-3l0.8-0.3
				c13.3-5.2,25.9-11.9,34.2-19.6c0,0-1.6-1.6-1.5-1.7c-11-10.3-15-19.1-18.5-32.4c-4-15.5-2.2-31,5.2-43.7
				c7.5-12.9,20-21.8,35.5-25.3c1.5-0.3,3.3-0.8,5.2-1.3c4.6-1.2,9.9-2.6,14.7-3.1C495.9,170.4,482.4,165.9,460,168z"/>
		</g>
	</g>
	<g>
		<g>
			<g>
				<g>
					<path class="st1" d="M192.6,370.4c-0.3,0-0.5,0-0.8-0.1c-1.4-0.4-2.3-1.9-1.8-3.3c0.5-1.8,3.4-5.3,16.2-9
						c1.5-0.4,3,0.4,3.4,1.8c0.4,1.4-0.4,2.9-1.8,3.3c-10.1,2.9-12.4,5.4-12.6,5.7C194.7,369.8,193.7,370.4,192.6,370.4z
						 M195.2,368.5L195.2,368.5L195.2,368.5z M195.2,368.5C195.2,368.5,195.2,368.5,195.2,368.5
						C195.2,368.5,195.2,368.5,195.2,368.5z"/>
				</g>
			</g>
		</g>
		<g>
			<g>
				<g>
					<path class="st1" d="M229.2,358.5c-1.3,0-2.5-0.9-2.7-2.3c-0.2-1.5,0.8-2.8,2.3-3.1c9.8-1.5,21.3-2.8,34.2-3.8
						c1.5-0.1,2.8,1,2.9,2.5c0.1,1.5-1,2.8-2.5,2.9c-12.8,1-24.2,2.3-33.8,3.8C229.5,358.5,229.4,358.5,229.2,358.5z M286.2,353.2
						l-0.3-5.3c12.2-0.6,23.6-1.1,34.2-1.6c1.4-0.1,2.8,1.1,2.8,2.6c0.1,1.5-1.1,2.7-2.6,2.8C309.8,352.1,298.4,352.6,286.2,353.2z
						 M342.9,350.7c-1.5,0-2.7-1.1-2.7-2.6c-0.1-1.5,1.1-2.7,2.6-2.8c10.4-0.4,22.6-1,34.1-1.8c1.5-0.1,2.8,1,2.9,2.5
						c0.1,1.5-1,2.8-2.5,2.9c-11.5,0.8-23.8,1.4-34.2,1.8C343,350.7,343,350.7,342.9,350.7z M286,350.5L286,350.5L286,350.5z
						 M399.8,346.8c-1.4,0-2.5-1-2.7-2.4c-0.2-1.5,0.9-2.8,2.4-3c12.7-1.5,23.6-3.5,33.2-6.1c1.4-0.4,3,0.4,3.4,1.9
						c0.4,1.4-0.5,2.9-1.9,3.3c-9.9,2.7-21,4.7-34,6.3C400,346.8,399.9,346.8,399.8,346.8z M454.7,333c-1,0-2-0.6-2.5-1.5
						c-0.6-1.3,0-2.9,1.3-3.6c6.2-2.8,11.8-6,17.2-9.8c4.1-2.8,7.8-5.5,11.2-7.9c1.2-0.9,2.9-0.6,3.8,0.6c0.9,1.2,0.6,2.9-0.6,3.7
						c-3.4,2.5-7.2,5.1-11.3,7.9c-5.7,3.9-11.6,7.3-18,10.2C455.5,332.9,455.1,333,454.7,333z M501.5,301.3c-0.8,0-1.5-0.3-2.1-0.9
						c-1-1.1-0.9-2.8,0.3-3.8c10.6-9.1,15.4-15.9,18.2-25.8c0.4-1.4,1.9-2.3,3.4-1.9c1.5,0.4,2.3,1.9,1.9,3.3
						c-3.1,11-8.5,18.7-19.9,28.5C502.7,301,502.1,301.3,501.5,301.3z M523.6,252c-1.5,0-2.7-1.2-2.7-2.6
						c-0.2-10.7-3.1-21.4-8.3-30.9c-0.7-1.3-0.2-2.9,1.1-3.6c1.3-0.7,3-0.2,3.7,1.1c5.7,10.3,8.8,21.8,9,33.4
						C526.3,250.8,525.1,252,523.6,252C523.6,252,523.6,252,523.6,252z"/>
				</g>
			</g>
		</g>
	</g>
</g>
</svg>
